<?xml version="1.0" encoding="UTF-8"?>
<svg width="17px" height="14px" viewBox="0 0 17 14" version="1.1" xmlns="http://www.w3.org/2000/svg" xmlns:xlink="http://www.w3.org/1999/xlink">
    <!-- Generator: sketchtool 41 (35326) - http://www.bohemiancoding.com/sketch -->
    <title>ADECB542-CD5E-4066-892E-DCE0320FF103</title>
    <desc>Created with sketchtool.</desc>
    <defs></defs>
    <g id="Showcase" stroke="none" stroke-width="1" fill="none" fill-rule="evenodd">
        <g transform="translate(-712.000000, -1123.000000)" id="Latest-projects" fill="#FF0000">
            <g transform="translate(180.000000, 100.000000)">
                <g id="Group-3" transform="translate(502.000000, 1023.000000)">
                    <path d="M46.5,4.90625 C46.4791666,3.67707719 46.0260461,2.59896297 45.140625,1.671875 C44.2552039,0.744787031 43.2083394,0.28125 42,0.28125 C40.5833262,0.28125 39.4166713,0.895827188 38.5,2.125 C37.5833287,0.895827188 36.4166738,0.28125 35,0.28125 C33.7916606,0.28125 32.7447961,0.744787031 31.859375,1.671875 C30.9739539,2.59896297 30.5208334,3.67707719 30.5,4.90625 L30.5,5 C30.5,5.02083344 30.5052083,5.05208312 30.515625,5.09375 C30.5260417,5.13541688 30.53125,5.16666656 30.53125,5.1875 C30.5520834,6.04167094 30.7187484,6.85937109 31.03125,7.640625 C31.3437516,8.42187891 31.7239561,9.09374719 32.171875,9.65625 C32.6197939,10.2187528 33.1458303,10.7552058 33.75,11.265625 C34.3541697,11.7760442 34.9010392,12.1874984 35.390625,12.5 C35.8802108,12.8125016 36.3906223,13.0937487 36.921875,13.34375 C37.4531277,13.5937513 37.8124991,13.755208 38,13.828125 C38.1875009,13.901042 38.3333328,13.9583331 38.4375,14 C38.5416672,13.9583331 38.6874991,13.9062503 38.875,13.84375 C39.0625009,13.7812497 39.4270806,13.619793 39.96875,13.359375 C40.5104194,13.098957 41.0312475,12.8125016 41.53125,12.5 C42.0312525,12.1874984 42.5885386,11.7812525 43.203125,11.28125 C43.8177114,10.7812475 44.3489561,10.2447945 44.796875,9.671875 C45.2447939,9.09895547 45.6302067,8.42187891 45.953125,7.640625 C46.2760433,6.85937109 46.4479166,6.04167094 46.46875,5.1875 C46.46875,5.16666656 46.4739583,5.13541688 46.484375,5.09375 C46.4947917,5.05208312 46.5,5.02083344 46.5,5 L46.5,4.90625 Z" id=""></path>
                </g>
            </g>
        </g>
    </g>
</svg>
