<?xml version="1.0" encoding="UTF-8"?>
<svg width="44px" height="43px" viewBox="0 0 44 43" version="1.1" xmlns="http://www.w3.org/2000/svg" xmlns:xlink="http://www.w3.org/1999/xlink">
    <!-- Generator: sketchtool 41 (35326) - http://www.bohemiancoding.com/sketch -->
    <title>52F38DA3-66EC-4AFC-BDC4-2F60B8CD2DA0</title>
    <desc>Created with sketchtool.</desc>
    <defs></defs>
    <g id="Showcase" stroke="none" stroke-width="1" fill="none" fill-rule="evenodd">
        <g transform="translate(-251.000000, -1411.000000)" id="Sevices-we-offer" fill="#353535">
            <g transform="translate(0.000000, 1209.000000)">
                <g id="Services-icons" transform="translate(177.000000, 198.000000)">
                    <g id="Gorgeous-Design" transform="translate(0.000000, 3.000000)">
                        <g id="Pen" transform="translate(74.000000, 0.000000)">
                            <path d="M41.949,10.91 L12.143,40.404 C11.296,41.245 3.453,43.618 1.523,43.618 C1.204,43.618 0.74,43.578 0.394,43.236 C-0.012,42.835 -0.472,42.38 1.11,37.119 C1.45,35.988 2.608,32.248 3.253,31.609 L33.059,2.114 C34.58,0.609 37.23,0.611 38.748,2.114 L41.949,5.28 C43.517,6.834 43.517,9.359 41.949,10.91 L41.949,10.91 Z M7.433,40.177 L3.477,36.262 C2.856,38.196 2.233,40.446 2.061,41.583 C3.288,41.412 5.522,40.788 7.433,40.177 L7.433,40.177 Z M40.526,6.687 L37.326,3.522 C36.565,2.769 35.241,2.769 34.481,3.521 L4.723,32.969 C4.595,33.176 4.41,33.609 4.199,34.168 C4.205,34.173 4.212,34.175 4.217,34.18 L9.55,39.458 C10.14,39.241 10.584,39.059 10.768,38.95 L40.527,9.503 C41.311,8.727 41.31,7.464 40.526,6.687 L40.526,6.687 Z M13.357,31.814 C13.161,32.008 12.903,32.106 12.646,32.106 C12.389,32.106 12.131,32.008 11.935,31.814 C11.542,31.425 11.542,30.795 11.935,30.407 L32.678,9.88 C33.071,9.491 33.707,9.491 34.1,9.88 C34.493,10.269 34.493,10.899 34.1,11.287 L13.357,31.814 L13.357,31.814 Z" id="Shape"></path>
                        </g>
                    </g>
                </g>
            </g>
        </g>
    </g>
</svg>