<?xml version="1.0" encoding="UTF-8"?>
<svg width="46px" height="46px" viewBox="0 0 46 46" version="1.1" xmlns="http://www.w3.org/2000/svg" xmlns:xlink="http://www.w3.org/1999/xlink">
    <!-- Generator: sketchtool 41 (35326) - http://www.bohemiancoding.com/sketch -->
    <title>D2A242DD-6A25-421C-AD2E-67CF0A623492</title>
    <desc>Created with sketchtool.</desc>
    <defs></defs>
    <g id="Showcase" stroke="none" stroke-width="1" fill="none" fill-rule="evenodd">
        <g transform="translate(-919.000000, -1408.000000)" id="Sevices-we-offer" fill="#353535">
            <g transform="translate(0.000000, 1209.000000)">
                <g id="Services-icons" transform="translate(177.000000, 198.000000)">
                    <g id="WordPress-Development" transform="translate(668.000000, 0.000000)">
                        <g id="Clock" transform="translate(73.500000, 0.000000)">
                            <path d="M44.354,10.356 C44.157,10.552 43.899,10.649 43.641,10.649 C43.383,10.649 43.125,10.552 42.928,10.356 C42.534,9.965 42.534,9.332 42.928,8.941 C43.593,8.281 43.96,7.403 43.96,6.469 C43.96,5.535 43.593,4.657 42.928,3.997 C41.554,2.635 39.319,2.635 37.945,3.997 C37.551,4.388 36.913,4.388 36.519,3.997 C36.125,3.606 36.125,2.972 36.519,2.582 C38.679,0.438 42.194,0.439 44.354,2.582 C45.4,3.62 45.977,5 45.977,6.469 C45.977,7.938 45.4,9.318 44.354,10.356 L44.354,10.356 Z M44.203,23.753 C44.203,30.952 40.505,37.309 34.897,41.056 L38.599,44.729 C38.993,45.12 38.993,45.753 38.599,46.144 C38.402,46.339 38.144,46.437 37.885,46.437 C37.627,46.437 37.369,46.339 37.172,46.144 L33.376,42.378 C33.29,42.292 33.231,42.192 33.183,42.089 C30.21,43.69 26.807,44.601 23.193,44.601 C19.419,44.601 15.884,43.595 12.819,41.86 C12.772,41.951 12.723,42.043 12.645,42.12 L8.59,46.144 C8.393,46.339 8.135,46.437 7.877,46.437 C7.619,46.437 7.361,46.339 7.164,46.144 C6.77,45.753 6.77,45.12 7.164,44.729 L11.129,40.794 C5.727,37.018 2.182,30.793 2.182,23.753 C2.182,12.257 11.607,2.906 23.193,2.906 C34.778,2.906 44.203,12.257 44.203,23.753 L44.203,23.753 Z M23.193,4.907 C12.719,4.907 4.199,13.361 4.199,23.753 C4.199,34.144 12.719,42.599 23.193,42.599 C33.665,42.599 42.185,34.144 42.185,23.753 C42.185,13.361 33.665,4.907 23.193,4.907 L23.193,4.907 Z M32.385,24.753 L26.176,24.753 C25.962,24.753 25.774,24.672 25.611,24.559 C25.272,25.533 24.349,26.238 23.252,26.238 C21.868,26.238 20.747,25.125 20.747,23.753 C20.747,22.557 21.598,21.559 22.733,21.321 C22.411,21.154 22.184,20.83 22.184,20.445 L22.184,10.33 C22.184,9.778 22.635,9.33 23.192,9.33 C23.749,9.33 24.201,9.778 24.201,10.33 L24.201,20.445 C24.201,20.822 23.982,21.138 23.672,21.308 C24.582,21.462 25.316,22.099 25.611,22.946 C25.774,22.833 25.962,22.752 26.176,22.752 L32.385,22.752 C32.942,22.752 33.393,23.2 33.393,23.753 C33.393,24.306 32.942,24.753 32.385,24.753 L32.385,24.753 Z M9.025,3.997 C7.652,2.635 5.417,2.635 4.043,3.997 C3.378,4.657 3.011,5.535 3.011,6.469 C3.011,7.403 3.378,8.281 4.043,8.941 C4.437,9.332 4.437,9.965 4.043,10.356 C3.846,10.552 3.588,10.649 3.33,10.649 C3.072,10.649 2.814,10.552 2.617,10.356 C1.57,9.318 0.994,7.938 0.994,6.469 C0.994,5 1.57,3.62 2.617,2.582 C4.777,0.439 8.291,0.439 10.452,2.582 C10.846,2.972 10.846,3.606 10.452,3.997 C10.058,4.388 9.419,4.388 9.025,3.997 L9.025,3.997 Z" id="Shape"></path>
                        </g>
                    </g>
                </g>
            </g>
        </g>
    </g>
</svg>