<?xml version="1.0" encoding="UTF-8" standalone="no"?>
<svg width="246px" height="100px" viewBox="0 0 246 100" version="1.1" xmlns="http://www.w3.org/2000/svg" xmlns:xlink="http://www.w3.org/1999/xlink">
    <!-- Generator: sketchtool 39.1 (31720) - http://www.bohemiancoding.com/sketch -->
    <title>4F2CE15C-4F98-49BE-927B-64465DAC3BBD</title>
    <desc>Created with sketchtool.</desc>
    <defs></defs>
    <g id="Home" stroke="none" stroke-width="1" fill="none" fill-rule="evenodd">
        <g transform="translate(-597.000000, -463.000000)" id="Logo" fill="#000000">
            <g transform="translate(589.000000, 448.000000)">
                <g id="Group" transform="translate(8.000000, 15.000000)">
                    <path d="M68.85,73.51 C68.85,68.8166432 70.18832,64.14169 72.865,59.485 C75.5416801,54.8283101 78.4199846,52.5 81.5,52.5 C82.1600033,52.5 82.9299956,52.6833315 83.81,53.05 C82.4166597,54.2233392 80.7666762,57.1383101 78.86,61.795 C76.9533238,66.45169 76,70.0999868 76,72.74 C76,76.9200209 77.3199868,79.01 79.96,79.01 C83.1866828,79.01 87.1099769,76.076696 91.73,70.21 C89.6766564,68.5233249 88.0816724,66.3233469 86.945,63.61 C85.8083277,60.8966531 85.24,58.073348 85.24,55.14 C85.24,51.3266476 86.211657,48.0633469 88.155,45.35 C90.0983431,42.6366531 92.7199835,41.28 96.02,41.28 C101.080025,41.28 103.61,44.1033051 103.61,49.75 C103.61,55.4700286 101.153358,61.99663 96.24,69.33 C97.5600066,70.063337 98.953326,70.43 100.42,70.43 C102.546677,70.43 104.746655,69.7883398 107.02,68.505 C109.293345,67.2216603 111.016661,65.2233469 112.19,62.51 L113.51,63.61 C112.11666,66.8366828 110.13668,69.2199923 107.57,70.76 C105.003321,72.3000077 102.363347,73.07 99.65,73.07 C97.6699901,73.07 95.9100077,72.703337 94.37,71.97 C88.503304,79.6700385 82.8933601,83.52 77.54,83.52 C74.5333183,83.52 72.3333403,82.6033425 70.94,80.77 C69.5466597,78.9366575 68.85,76.5166817 68.85,73.51 L68.85,73.51 Z M0.98,76.26 C0.98,73.0333172 3.6566399,71.42 9.01,71.42 C12.2366828,71.42 16.7466377,72.1899923 22.54,73.73 C23.7866729,71.6033227 25.0699934,68.8533502 26.39,65.48 C27.7100066,62.1066498 28.7549962,59.3016779 29.525,57.065 C30.2950039,54.8283222 31.4866586,51.143359 33.1,46.01 L36.29,36 C32.9166498,34.8999945 30.2583431,33.2866773 28.315,31.16 C26.371657,29.0333227 25.4,26.7233458 25.4,24.23 C25.4,22.1033227 26.0416603,20.1233425 27.325,18.29 C28.6083398,16.4566575 30.2399901,15.54 32.22,15.54 C31.2666619,16.8600066 30.79,19.1333172 30.79,22.36 C30.79,27.6400264 32.8799791,31.4166553 37.06,33.69 C38.6733414,28.7766421 40.213326,24.5600176 41.68,21.04 C43.146674,17.5199824 44.8516569,14.1100165 46.795,10.81 C48.7383431,7.5099835 50.8833216,5.0166751 53.23,3.33 C55.5766784,1.6433249 58.0699868,0.8 60.71,0.8 C63.4233469,0.8 65.879989,1.6799912 68.08,3.44 C70.280011,5.2000088 71.38,8.0599802 71.38,12.02 C71.38,14.6600132 70.8300055,17.4099857 69.73,20.27 C68.6299945,23.1300143 67.0533436,25.8616537 65,28.465 C62.9466564,31.0683464 60.1783508,33.1949918 56.695,34.845 C53.2116493,36.4950083 49.3066883,37.32 44.98,37.32 L43.22,37.32 C36.9866355,56.0934272 31.7066883,68.7066344 27.38,75.16 C28.0400033,75.3800011 29.6899868,75.8933293 32.33,76.7 L37.72,78.35 C38.6000044,78.6433348 40.1766553,79.0833304 42.45,79.67 C44.7233447,80.2566696 46.4833271,80.6783321 47.73,80.935 C48.9766729,81.191668 50.4249918,81.4299989 52.075,81.65 C53.7250082,81.8700011 55.2099934,81.98 56.53,81.98 C59.463348,81.98 62.0666553,81.3933392 64.34,80.22 C62.139989,86.4533645 58.2900275,89.57 52.79,89.57 C50.8833238,89.57 48.5916801,89.1850039 45.915,88.415 C43.23832,87.6449962 41.1116746,86.9300033 39.535,86.27 C37.9583255,85.6099967 35.2266861,84.3816757 31.34,82.585 C27.4533139,80.7883244 25.0700044,79.7066685 24.19,79.34 C20.3033139,83.6666883 16.2333546,85.83 11.98,85.83 C8.6799835,85.83 6.02167675,84.7666773 4.005,82.64 C1.98832325,80.5133227 0.98,78.3866773 0.98,76.26 L0.98,76.26 Z M6.15,80.55 C7.6900077,81.9433403 9.4866564,82.64 11.54,82.64 C14.6200154,82.64 17.4433205,80.9533502 20.01,77.58 C14.5833062,75.379989 10.403348,74.28 7.47,74.28 C5.0499879,74.28 3.84,74.9766597 3.84,76.37 C3.84,77.7633403 4.6099923,79.1566597 6.15,80.55 L6.15,80.55 Z M43.88,35.23 C49.8933634,35.1566663 54.9899791,32.0766971 59.17,25.99 C63.3500209,19.9033029 65.44,14.2566927 65.44,9.05 C65.44,5.383315 64.1200132,3.55 61.48,3.55 C59.8666586,3.55 58.2900077,4.3199923 56.75,5.86 C55.2099923,7.4000077 53.6700077,9.87498295 52.13,13.285 C50.5899923,16.6950171 49.2700055,19.9033183 48.17,22.91 C47.0699945,25.9166817 45.6400088,30.0233073 43.88,35.23 L43.88,35.23 Z M89.97,55.47 C89.97,60.4566916 91.2166542,64.416652 93.71,67.35 C97.9633546,61.0433018 100.09,55.3966916 100.09,50.41 C100.09,46.3033128 98.990011,44.25 96.79,44.25 C95.1766586,44.25 93.636674,45.3683222 92.17,47.605 C90.703326,49.8416779 89.97,52.4633183 89.97,55.47 L89.97,55.47 Z M120,56.46 C126.013363,50.3733029 131.659974,42.3617164 136.94,32.425 C142.220026,22.4882837 144.86,15.5033535 144.86,11.47 C144.86,10.2966608 144.603336,9.71 144.09,9.71 C143.063328,9.71 141.028349,12.0749764 137.985,16.805 C134.941651,21.5350237 131.660018,27.6766289 128.14,35.23 C124.619982,42.7833711 121.906676,49.859967 120,56.46 L120,56.46 Z M135.51,73.62 C135.51,70.7599857 136.279992,66.9100242 137.82,62.07 C139.360008,57.2299758 141.41332,52.7933535 143.98,48.76 C146.546679,44.7266465 149.003322,42.71 151.35,42.71 C152.963341,42.71 153.77,43.5166586 153.77,45.13 C153.77,46.0100044 152.816676,48.0266509 150.91,51.18 C149.003324,54.3333491 147.096676,57.9083134 145.19,61.905 C143.283324,65.9016867 142.33,69.4033183 142.33,72.41 C142.33,74.9766795 142.751662,76.7183288 143.595,77.635 C144.438338,78.5516713 145.813324,79.01 147.72,79.01 C153.440029,79.01 159.086639,73.4000561 164.66,62.18 L165.65,63.28 C163.596656,69.4400308 160.571687,74.2433161 156.575,77.69 C152.578313,81.1366839 148.380022,82.86 143.98,82.86 C141.266653,82.86 139.176674,81.998342 137.71,80.275 C136.243326,78.5516581 135.51,76.3333469 135.51,73.62 L135.51,73.62 Z M152.67,28.85 C152.67,27.383326 153.549991,26.0633392 155.31,24.89 C157.070009,23.7166608 158.866658,23.13 160.7,23.13 C163.120012,23.13 164.33,24.229989 164.33,26.43 C164.33,27.896674 163.578341,29.2716602 162.075,30.555 C160.571659,31.8383398 158.940009,32.48 157.18,32.48 C154.173318,32.48 152.67,31.2700121 152.67,28.85 L152.67,28.85 Z M162.13,74.17 C162.13,67.8633018 164.256645,59.0267235 168.51,47.66 C166.749991,47.3666652 165.430004,47.0733348 164.55,46.78 L164.55,44.8 C167.190013,45.0933348 168.80333,45.24 169.39,45.24 C172.616683,36.8799582 176.081648,29.638364 179.785,23.515 C183.488352,17.3916361 186.403323,14.33 188.53,14.33 C189.11667,14.33 189.648331,14.5499978 190.125,14.99 C190.601669,15.4300022 190.84,16.016663 190.84,16.75 C190.84,17.8500055 190.125007,19.7566531 188.695,22.47 C187.264993,25.1833469 185.248346,28.8133106 182.645,33.36 C180.041654,37.9066894 177.896675,41.9766487 176.21,45.57 L180.28,45.57 C186.366697,45.57 191.609978,45.3500022 196.01,44.91 L196.01,46.89 C188.236628,47.7700044 181.966691,48.21 177.2,48.21 C176.979999,48.21 176.796667,48.21 176.65,48.21 L175,48.21 C170.966647,57.3767125 168.95,65.3332996 168.95,72.08 C168.95,75.3800165 169.426662,77.6899934 170.38,79.01 C171.333338,80.3300066 172.909989,80.99 175.11,80.99 C178.850019,80.99 182.553315,79.3216834 186.22,75.985 C189.886685,72.6483167 193.149986,68.046696 196.01,62.18 L197.44,63.28 C194.726653,69.6600319 191.060023,74.8849797 186.44,78.955 C181.819977,83.0250204 176.980025,85.06 171.92,85.06 C165.393301,85.06 162.13,81.4300363 162.13,74.17 L162.13,74.17 Z M191.06,76.04 C191.06,71.7133117 192.581651,66.9100264 195.625,61.63 C198.668349,56.3499736 202.609976,51.8033524 207.45,47.99 C212.290024,44.1766476 216.983311,42.27 221.53,42.27 C224.390014,42.27 226.773324,43.0399923 228.68,44.58 C230.586676,46.1200077 231.54,48.0999879 231.54,50.52 C231.54,53.6733491 229.743351,55.25 226.15,55.25 C226.516668,53.9299934 226.7,52.6466729 226.7,51.4 C226.7,47.2933128 224.903351,45.24 221.31,45.24 C218.083317,45.24 214.655018,47.0916482 211.025,50.795 C207.394982,54.4983519 204.425012,58.788309 202.115,63.665 C199.804988,68.5416911 198.65,72.7766487 198.65,76.37 C198.65,79.2300143 199.63999,80.66 201.62,80.66 C202.940007,80.66 204.479991,80.0366729 206.24,78.79 C208.000009,77.5433271 209.613326,76.1500077 211.08,74.61 C212.546674,73.0699923 214.288323,70.9983464 216.305,68.395 C218.321677,65.7916537 219.806662,63.7933403 220.76,62.4 L224.72,56.68 C227.653348,57.1933359 229.12,58.1099934 229.12,59.43 C229.12,60.0166696 228.056677,62.2166476 225.93,66.03 C223.803323,69.8433524 222.74,72.7399901 222.74,74.72 C222.74,75.9666729 223.051664,77.0849951 223.675,78.075 C224.298336,79.065005 225.233327,79.56 226.48,79.56 C228.606677,79.56 231.283317,78.0383486 234.51,74.995 C237.736683,71.9516515 240.926651,67.6800275 244.08,62.18 L245.18,63.28 C242.906655,69.146696 239.698354,73.9499813 235.555,77.69 C231.411646,81.4300187 227.36002,83.3 223.4,83.3 C220.833321,83.3 218.871673,82.5483409 217.515,81.045 C216.158327,79.5416592 215.48,77.7266773 215.48,75.6 C215.48,74.7199956 215.589999,73.6566729 215.81,72.41 C212.509983,76.810022 209.558346,80.0366564 206.955,82.09 C204.351654,84.1433436 201.76668,85.17 199.2,85.17 C196.779988,85.17 194.818341,84.3816746 193.315,82.805 C191.811659,81.2283255 191.06,78.973348 191.06,76.04 L191.06,76.04 Z M110.43,71.97 C110.43,66.9833084 111.859986,60.328375 114.72,52.005 C117.580014,43.6816251 120.898314,35.7983706 124.675,28.355 C128.451686,20.9116295 132.264981,14.4583607 136.115,8.995 C139.965019,3.53163935 142.806658,0.8 144.64,0.8 C145.666672,0.8 146.52833,1.7166575 147.225,3.55 C147.92167,5.3833425 148.27,7.1799912 148.27,8.94 C148.27,14.4400275 145.263363,22.8182771 139.25,34.075 C133.236637,45.331723 126.490037,54.0399692 119.01,60.2 C118.056662,64.4533546 117.58,68.1566509 117.58,71.31 C117.58,76.9566949 119.193317,79.78 122.42,79.78 C125.133347,79.78 127.901653,78.0566839 130.725,74.61 C133.548347,71.1633161 136.059989,67.0200242 138.26,62.18 L139.91,63.06 C133.603302,76.5534008 126.746704,83.3 119.34,83.3 L119.23,83.3 C113.363304,83.3 110.43,79.5233711 110.43,71.97 L110.43,71.97 Z" id="Lolita"></path>
                    <path d="M80.0710449,98.9819336 C79.7416162,98.9819336 79.4712738,98.9335942 79.2600098,98.8369141 L79.2600098,98.3642578 C79.539308,98.4358728 79.8060697,98.4716797 80.0603027,98.4716797 C80.9268435,98.4716797 81.3601074,97.9990282 81.3601074,97.0537109 L81.3601074,89.1474609 L81.907959,89.1474609 L81.907959,97 C81.907959,98.3212957 81.2956604,98.9819336 80.0710449,98.9819336 L80.0710449,98.9819336 Z M84.4055176,91.1616211 L84.4055176,94.9428711 C84.4055176,95.5301136 84.5290515,95.9571113 84.776123,96.223877 C85.0231946,96.4906426 85.4063288,96.6240234 85.9255371,96.6240234 C86.620202,96.6240234 87.131346,96.4485695 87.4589844,96.0976562 C87.7866227,95.746743 87.9504395,95.1756224 87.9504395,94.3842773 L87.9504395,91.1616211 L88.4768066,91.1616211 L88.4768066,97 L88.0256348,97 L87.9289551,96.1943359 L87.8967285,96.1943359 C87.5171693,96.8030629 86.8422086,97.1074219 85.8718262,97.1074219 C84.543369,97.1074219 83.8791504,96.3966542 83.8791504,94.9750977 L83.8791504,91.1616211 L84.4055176,91.1616211 Z M94.052002,95.4799805 C94.052002,96.0027695 93.8532735,96.4047024 93.4558105,96.685791 C93.0583476,96.9668797 92.4943884,97.1074219 91.763916,97.1074219 C90.9833132,97.1074219 90.3638532,96.9874686 89.9055176,96.7475586 L89.9055176,96.1728516 C90.4927601,96.4664728 91.11222,96.6132812 91.763916,96.6132812 C92.3404163,96.6132812 92.7781561,96.5174977 93.0771484,96.3259277 C93.3761408,96.1343578 93.5256348,95.8792334 93.5256348,95.5605469 C93.5256348,95.2669256 93.4065767,95.0198578 93.168457,94.8193359 C92.9303374,94.6188141 92.5391466,94.421876 91.994873,94.2285156 C91.4112113,94.0172515 91.0012219,93.8355314 90.7648926,93.6833496 C90.5285633,93.5311679 90.3504238,93.3592946 90.2304688,93.1677246 C90.1105137,92.9761546 90.0505371,92.7425144 90.0505371,92.4667969 C90.0505371,92.0299457 90.2340476,91.6844088 90.6010742,91.4301758 C90.9681008,91.1759427 91.4810351,91.0488281 92.1398926,91.0488281 C92.7701041,91.0488281 93.3680799,91.166991 93.9338379,91.4033203 L93.7351074,91.8867188 C93.1621879,91.6503894 92.6304549,91.5322266 92.1398926,91.5322266 C91.6636532,91.5322266 91.2858901,91.6110018 91.0065918,91.7685547 C90.7272935,91.9261076 90.5876465,92.1445299 90.5876465,92.4238281 C90.5876465,92.7281916 90.6959625,92.9716788 90.9125977,93.1542969 C91.1292329,93.336915 91.5526498,93.5410145 92.1828613,93.7666016 C92.7092311,93.9563812 93.0923653,94.1273593 93.3322754,94.279541 C93.5721854,94.4317228 93.7521153,94.6044912 93.8720703,94.7978516 C93.9920253,94.9912119 94.052002,95.2185859 94.052002,95.4799805 L94.052002,95.4799805 Z M97.0974121,96.6347656 C97.4340023,96.6347656 97.7276192,96.6061201 97.9782715,96.5488281 L97.9782715,96.9785156 C97.7204577,97.0644536 97.4232601,97.1074219 97.0866699,97.1074219 C96.5710423,97.1074219 96.1905937,96.9695652 95.9453125,96.6938477 C95.7000313,96.4181301 95.5773926,95.9848662 95.5773926,95.394043 L95.5773926,91.6235352 L94.7126465,91.6235352 L94.7126465,91.3120117 L95.5773926,91.0703125 L95.8459473,89.7490234 L96.119873,89.7490234 L96.119873,91.1616211 L97.833252,91.1616211 L97.833252,91.6235352 L96.119873,91.6235352 L96.119873,95.3188477 C96.119873,95.766441 96.1986483,96.0976552 96.3562012,96.3125 C96.513754,96.5273448 96.7608219,96.6347656 97.0974121,96.6347656 L97.0974121,96.6347656 Z M104.267822,91.6235352 L102.892822,91.6235352 L102.892822,97 L102.361084,97 L102.361084,91.6235352 L101.276123,91.6235352 L101.276123,91.3120117 L102.361084,91.1132812 L102.361084,90.6621094 C102.361084,89.94596 102.492674,89.4204932 102.755859,89.0856934 C103.019044,88.7508935 103.449623,88.5834961 104.047607,88.5834961 C104.369875,88.5834961 104.692137,88.6318355 105.014404,88.7285156 L104.890869,89.1904297 C104.604409,89.100911 104.319744,89.0561523 104.036865,89.0561523 C103.621499,89.0561523 103.326987,89.1787911 103.15332,89.4240723 C102.979654,89.6693534 102.892822,90.0677056 102.892822,90.6191406 L102.892822,91.1616211 L104.267822,91.1616211 L104.267822,91.6235352 Z M105.857666,91.1616211 L105.857666,94.9428711 C105.857666,95.5301136 105.9812,95.9571113 106.228271,96.223877 C106.475343,96.4906426 106.858477,96.6240234 107.377686,96.6240234 C108.07235,96.6240234 108.583494,96.4485695 108.911133,96.0976562 C109.238771,95.746743 109.402588,95.1756224 109.402588,94.3842773 L109.402588,91.1616211 L109.928955,91.1616211 L109.928955,97 L109.477783,97 L109.381104,96.1943359 L109.348877,96.1943359 C108.969318,96.8030629 108.294357,97.1074219 107.323975,97.1074219 C105.995517,97.1074219 105.331299,96.3966542 105.331299,94.9750977 L105.331299,91.1616211 L105.857666,91.1616211 Z M114.215088,97.1074219 C113.380774,97.1074219 112.727297,96.8442409 112.254639,96.3178711 C111.78198,95.7915013 111.545654,95.0574591 111.545654,94.1157227 C111.545654,93.1489209 111.790932,92.3960802 112.281494,91.8571777 C112.772056,91.3182753 113.443436,91.0488281 114.295654,91.0488281 C114.80054,91.0488281 115.283933,91.1365551 115.74585,91.3120117 L115.60083,91.784668 C115.095945,91.6163729 114.65731,91.5322266 114.284912,91.5322266 C113.568763,91.5322266 113.026288,91.7533344 112.657471,92.1955566 C112.288654,92.6377789 112.104248,93.2742471 112.104248,94.1049805 C112.104248,94.8927448 112.288654,95.5095193 112.657471,95.9553223 C113.026288,96.4011253 113.541907,96.6240234 114.204346,96.6240234 C114.734296,96.6240234 115.226642,96.5291351 115.681396,96.3393555 L115.681396,96.8334961 C115.308999,97.0161142 114.820234,97.1074219 114.215088,97.1074219 L114.215088,97.1074219 Z M117.631104,94.4379883 L120.612061,91.1616211 L121.256592,91.1616211 L118.957764,93.6538086 L121.455322,97 L120.816162,97 L118.5979,94.0512695 L117.641846,94.9213867 L117.641846,97 L117.110107,97 L117.110107,88.6425781 L117.641846,88.6425781 L117.641846,92.8320312 L117.604248,94.4379883 L117.631104,94.4379883 Z M122.9646,97 L122.432861,97 L122.432861,91.1616211 L122.9646,91.1616211 L122.9646,97 Z M122.357666,89.5395508 C122.357666,89.1957991 122.470458,89.0239258 122.696045,89.0239258 C122.807048,89.0239258 122.89388,89.0686844 122.956543,89.1582031 C123.019206,89.2477218 123.050537,89.3748364 123.050537,89.5395508 C123.050537,89.7006844 123.019206,89.827799 122.956543,89.9208984 C122.89388,90.0139979 122.807048,90.0605469 122.696045,90.0605469 C122.470458,90.0605469 122.357666,89.8868832 122.357666,89.5395508 L122.357666,89.5395508 Z M128.990967,97 L128.990967,93.2133789 C128.990967,92.6261364 128.867433,92.1991387 128.620361,91.932373 C128.37329,91.6656074 127.990156,91.5322266 127.470947,91.5322266 C126.772702,91.5322266 126.261558,91.7085757 125.9375,92.0612793 C125.613442,92.4139829 125.451416,92.9859986 125.451416,93.7773438 L125.451416,97 L124.919678,97 L124.919678,91.1616211 L125.37085,91.1616211 L125.4729,91.9619141 L125.505127,91.9619141 C125.884686,91.3531871 126.559647,91.0488281 127.530029,91.0488281 C128.854906,91.0488281 129.517334,91.7595958 129.517334,93.1811523 L129.517334,97 L128.990967,97 Z M135.962646,91.1616211 L135.962646,91.5322266 L134.75415,91.6074219 C135.076418,92.0084655 135.237549,92.4488908 135.237549,92.9287109 C135.237549,93.4908882 135.050458,93.9465315 134.67627,94.2956543 C134.302081,94.6447771 133.799889,94.8193359 133.169678,94.8193359 C132.904702,94.8193359 132.718506,94.8085939 132.611084,94.7871094 C132.39982,94.8981125 132.238689,95.0288078 132.127686,95.1791992 C132.016682,95.3295906 131.961182,95.4889315 131.961182,95.6572266 C131.961182,95.8434254 132.0319,95.9794918 132.17334,96.0654297 C132.314779,96.1513676 132.552,96.1943359 132.88501,96.1943359 L133.905518,96.1943359 C134.53931,96.1943359 135.024494,96.3223457 135.361084,96.5783691 C135.697674,96.8343926 135.865967,97.2130509 135.865967,97.7143555 C135.865967,98.330244 135.616213,98.805581 135.116699,99.1403809 C134.617185,99.4751807 133.905522,99.6425781 132.981689,99.6425781 C132.247636,99.6425781 131.679201,99.5011407 131.276367,99.2182617 C130.873533,98.9353827 130.672119,98.5415064 130.672119,98.0366211 C130.672119,97.6355774 130.796548,97.3025729 131.04541,97.0375977 C131.294272,96.7726224 131.631752,96.5917974 132.057861,96.4951172 C131.882405,96.4199215 131.741863,96.3133959 131.63623,96.1755371 C131.530598,96.0376783 131.477783,95.8792327 131.477783,95.7001953 C131.477783,95.3098939 131.726641,94.9661473 132.224365,94.6689453 C131.884194,94.5292962 131.619223,94.3099787 131.429443,94.0109863 C131.239664,93.7119939 131.144775,93.3691426 131.144775,92.9824219 C131.144775,92.3987601 131.330076,91.9305844 131.700684,91.5778809 C132.071291,91.2251773 132.571693,91.0488281 133.201904,91.0488281 C133.585044,91.0488281 133.882242,91.0864254 134.093506,91.1616211 L135.962646,91.1616211 Z M131.236084,97.9882812 C131.236084,98.7903686 131.832269,99.1914062 133.024658,99.1914062 C134.557218,99.1914062 135.323486,98.7026416 135.323486,97.7250977 C135.323486,97.3741844 135.203533,97.1199552 134.963623,96.9624023 C134.723713,96.8048495 134.335208,96.7260742 133.798096,96.7260742 L132.842041,96.7260742 C131.771398,96.7260742 131.236084,97.1468057 131.236084,97.9882812 L131.236084,97.9882812 Z M131.681885,92.9824219 C131.681885,93.433596 131.818846,93.7836088 132.092773,94.0324707 C132.366701,94.2813326 132.732826,94.4057617 133.191162,94.4057617 C133.678144,94.4057617 134.051431,94.2822278 134.311035,94.0351562 C134.570639,93.7880847 134.700439,93.4300154 134.700439,92.9609375 C134.700439,92.4632137 134.567059,92.0899264 134.300293,91.8410645 C134.033527,91.5922025 133.66024,91.4677734 133.18042,91.4677734 C132.714923,91.4677734 132.348797,91.6011543 132.082031,91.8679199 C131.815266,92.1346856 131.681885,92.5061825 131.681885,92.9824219 L131.681885,92.9824219 Z M143.562744,97 L143.428467,96.0761719 L143.385498,96.0761719 C143.091877,96.4521503 142.790203,96.7180168 142.480469,96.8737793 C142.170734,97.0295418 141.804608,97.1074219 141.38208,97.1074219 C140.809161,97.1074219 140.363364,96.9606134 140.044678,96.6669922 C139.725991,96.3733709 139.56665,95.9669622 139.56665,95.4477539 C139.56665,94.8784151 139.803871,94.4361995 140.27832,94.1210938 C140.752769,93.805988 141.439367,93.6394858 142.338135,93.621582 L143.449951,93.5893555 L143.449951,93.2026367 C143.449951,92.6476209 143.337159,92.2286798 143.111572,91.9458008 C142.885985,91.6629218 142.522545,91.5214844 142.02124,91.5214844 C141.480547,91.5214844 140.920169,91.6718735 140.340088,91.9726562 L140.141357,91.5107422 C140.782311,91.2099594 141.416094,91.0595703 142.042725,91.0595703 C142.683678,91.0595703 143.162596,91.2260726 143.479492,91.559082 C143.796388,91.8920915 143.954834,92.411292 143.954834,93.1166992 L143.954834,97 L143.562744,97 Z M141.414307,96.6240234 C142.037357,96.6240234 142.528807,96.4458839 142.888672,96.0895996 C143.248537,95.7333153 143.428467,95.2382844 143.428467,94.6044922 L143.428467,94.0297852 L142.407959,94.0727539 C141.587968,94.1121421 141.00342,94.2401519 140.654297,94.4567871 C140.305174,94.6734223 140.130615,95.0109027 140.130615,95.4692383 C140.130615,95.8344745 140.242512,96.1182444 140.466309,96.3205566 C140.690105,96.5228689 141.006101,96.6240234 141.414307,96.6240234 L141.414307,96.6240234 Z M150.512939,97 L149.234619,93.0952148 C149.152262,92.8302396 149.046632,92.4417343 148.917725,91.9296875 L148.885498,91.9296875 L148.772705,92.3271484 L148.531006,93.105957 L147.231201,97 L146.704834,97 L145.034424,91.1616211 L145.60376,91.1616211 L146.53833,94.5454102 C146.756756,95.383305 146.899983,95.9991842 146.968018,96.3930664 L147.000244,96.3930664 C147.211508,95.5551716 147.365478,94.9983738 147.462158,94.7226562 L148.665283,91.1616211 L149.148682,91.1616211 L150.292725,94.7119141 C150.550538,95.5533896 150.708089,96.1101874 150.765381,96.3823242 L150.797607,96.3823242 C150.826253,96.1495757 150.969481,95.526535 151.227295,94.5131836 L152.118896,91.1616211 L152.656006,91.1616211 L151.071533,97 L150.512939,97 Z M156.157959,97.1074219 C155.309322,97.1074219 154.647789,96.8460313 154.17334,96.3232422 C153.698891,95.8004531 153.46167,95.0682013 153.46167,94.1264648 C153.46167,93.1954706 153.690834,92.4497912 154.14917,91.8894043 C154.607506,91.3290174 155.225175,91.0488281 156.002197,91.0488281 C156.689701,91.0488281 157.232176,91.2887346 157.629639,91.7685547 C158.027102,92.2483748 158.22583,92.900061 158.22583,93.7236328 L158.22583,94.1533203 L154.020264,94.1533203 C154.027425,94.9554077 154.214516,95.5677062 154.581543,95.9902344 C154.94857,96.4127625 155.474036,96.6240234 156.157959,96.6240234 C156.490968,96.6240234 156.78369,96.6007489 157.036133,96.5541992 C157.288575,96.5076495 157.608152,96.4073901 157.994873,96.253418 L157.994873,96.7368164 C157.665444,96.8800463 157.361085,96.9776202 157.081787,97.029541 C156.802489,97.0814618 156.494549,97.1074219 156.157959,97.1074219 L156.157959,97.1074219 Z M156.002197,91.5214844 C155.44002,91.5214844 154.988853,91.7067853 154.648682,92.0773926 C154.308511,92.4479999 154.109782,92.9824184 154.05249,93.6806641 L157.661865,93.6806641 C157.661865,93.0039029 157.515057,92.4748554 157.221436,92.0935059 C156.927814,91.7121563 156.521406,91.5214844 156.002197,91.5214844 L156.002197,91.5214844 Z M163.457275,95.4799805 C163.457275,96.0027695 163.258547,96.4047024 162.861084,96.685791 C162.463621,96.9668797 161.899662,97.1074219 161.169189,97.1074219 C160.388587,97.1074219 159.769127,96.9874686 159.310791,96.7475586 L159.310791,96.1728516 C159.898034,96.4664728 160.517493,96.6132812 161.169189,96.6132812 C161.74569,96.6132812 162.183429,96.5174977 162.482422,96.3259277 C162.781414,96.1343578 162.930908,95.8792334 162.930908,95.5605469 C162.930908,95.2669256 162.81185,95.0198578 162.57373,94.8193359 C162.335611,94.6188141 161.94442,94.421876 161.400146,94.2285156 C160.816485,94.0172515 160.406495,93.8355314 160.170166,93.6833496 C159.933837,93.5311679 159.755697,93.3592946 159.635742,93.1677246 C159.515787,92.9761546 159.455811,92.7425144 159.455811,92.4667969 C159.455811,92.0299457 159.639321,91.6844088 160.006348,91.4301758 C160.373374,91.1759427 160.886309,91.0488281 161.545166,91.0488281 C162.175377,91.0488281 162.773353,91.166991 163.339111,91.4033203 L163.140381,91.8867188 C162.567461,91.6503894 162.035728,91.5322266 161.545166,91.5322266 C161.068927,91.5322266 160.691164,91.6110018 160.411865,91.7685547 C160.132567,91.9261076 159.99292,92.1445299 159.99292,92.4238281 C159.99292,92.7281916 160.101236,92.9716788 160.317871,93.1542969 C160.534506,93.336915 160.957923,93.5410145 161.588135,93.7666016 C162.114505,93.9563812 162.497639,94.1273593 162.737549,94.279541 C162.977459,94.4317228 163.157389,94.6044912 163.277344,94.7978516 C163.397299,94.9912119 163.457275,95.2185859 163.457275,95.4799805 L163.457275,95.4799805 Z M169.789795,94.0727539 C169.789795,95.0252326 169.55884,95.7691217 169.096924,96.3044434 C168.635007,96.839765 167.997644,97.1074219 167.184814,97.1074219 C166.672768,97.1074219 166.2216,96.983888 165.831299,96.7368164 C165.440997,96.4897449 165.14201,96.1352562 164.934326,95.6733398 C164.726643,95.2114235 164.622803,94.6779002 164.622803,94.0727539 C164.622803,93.1202752 164.853757,92.3781765 165.315674,91.8464355 C165.77759,91.3146946 166.411373,91.0488281 167.217041,91.0488281 C168.019128,91.0488281 168.648435,91.3182753 169.10498,91.8571777 C169.561526,92.3960802 169.789795,93.1345982 169.789795,94.0727539 L169.789795,94.0727539 Z M165.181396,94.0727539 C165.181396,94.8748413 165.357746,95.5005674 165.710449,95.9499512 C166.063153,96.3993349 166.561764,96.6240234 167.206299,96.6240234 C167.850833,96.6240234 168.349445,96.3993349 168.702148,95.9499512 C169.054852,95.5005674 169.231201,94.8748413 169.231201,94.0727539 C169.231201,93.2670858 169.053062,92.6422548 168.696777,92.1982422 C168.340493,91.7542296 167.840091,91.5322266 167.195557,91.5322266 C166.551022,91.5322266 166.054201,91.7533344 165.705078,92.1955566 C165.355955,92.6377789 165.181396,93.2635051 165.181396,94.0727539 L165.181396,94.0727539 Z M178.700439,97 L178.700439,93.1704102 C178.700439,92.6010714 178.589438,92.1857109 178.367432,91.9243164 C178.145425,91.6629219 177.805259,91.5322266 177.346924,91.5322266 C176.748939,91.5322266 176.306723,91.6969385 176.020264,92.0263672 C175.733804,92.3557959 175.590576,92.8732061 175.590576,93.5786133 L175.590576,97 L175.048096,97 L175.048096,93.0092773 C175.048096,92.0245719 174.596928,91.5322266 173.69458,91.5322266 C173.082272,91.5322266 172.636476,91.7103661 172.357178,92.0666504 C172.077879,92.4229347 171.938232,92.9931601 171.938232,93.7773438 L171.938232,97 L171.406494,97 L171.406494,91.1616211 L171.846924,91.1616211 L171.959717,91.9619141 L171.991943,91.9619141 C172.153077,91.6718735 172.382241,91.447185 172.679443,91.2878418 C172.976645,91.1284986 173.304279,91.0488281 173.662354,91.0488281 C174.582606,91.0488281 175.17342,91.394365 175.434814,92.0854492 L175.456299,92.0854492 C175.646078,91.7524397 175.901203,91.4964202 176.22168,91.3173828 C176.542157,91.1383455 176.906492,91.0488281 177.314697,91.0488281 C177.95207,91.0488281 178.430093,91.2189111 178.748779,91.559082 C179.067466,91.899253 179.226807,92.4399377 179.226807,93.1811523 L179.226807,97 L178.700439,97 Z M183.475342,97.1074219 C182.626705,97.1074219 181.965172,96.8460313 181.490723,96.3232422 C181.016274,95.8004531 180.779053,95.0682013 180.779053,94.1264648 C180.779053,93.1954706 181.008217,92.4497912 181.466553,91.8894043 C181.924888,91.3290174 182.542558,91.0488281 183.31958,91.0488281 C184.007084,91.0488281 184.549559,91.2887346 184.947021,91.7685547 C185.344484,92.2483748 185.543213,92.900061 185.543213,93.7236328 L185.543213,94.1533203 L181.337646,94.1533203 C181.344808,94.9554077 181.531899,95.5677062 181.898926,95.9902344 C182.265952,96.4127625 182.791419,96.6240234 183.475342,96.6240234 C183.808351,96.6240234 184.101073,96.6007489 184.353516,96.5541992 C184.605958,96.5076495 184.925535,96.4073901 185.312256,96.253418 L185.312256,96.7368164 C184.982827,96.8800463 184.678468,96.9776202 184.39917,97.029541 C184.119872,97.0814618 183.811932,97.1074219 183.475342,97.1074219 L183.475342,97.1074219 Z M183.31958,91.5214844 C182.757403,91.5214844 182.306235,91.7067853 181.966064,92.0773926 C181.625893,92.4479999 181.427165,92.9824184 181.369873,93.6806641 L184.979248,93.6806641 C184.979248,93.0039029 184.83244,92.4748554 184.538818,92.0935059 C184.245197,91.7121563 183.838788,91.5214844 183.31958,91.5214844 L183.31958,91.5214844 Z M192.181885,91.6235352 L190.806885,91.6235352 L190.806885,97 L190.275146,97 L190.275146,91.6235352 L189.190186,91.6235352 L189.190186,91.3120117 L190.275146,91.1132812 L190.275146,90.6621094 C190.275146,89.94596 190.406737,89.4204932 190.669922,89.0856934 C190.933107,88.7508935 191.363685,88.5834961 191.96167,88.5834961 C192.283937,88.5834961 192.6062,88.6318355 192.928467,88.7285156 L192.804932,89.1904297 C192.518472,89.100911 192.233807,89.0561523 191.950928,89.0561523 C191.535561,89.0561523 191.241049,89.1787911 191.067383,89.4240723 C190.893717,89.6693534 190.806885,90.0677056 190.806885,90.6191406 L190.806885,91.1616211 L192.181885,91.1616211 L192.181885,91.6235352 Z M195.608643,91.0488281 C195.855714,91.0488281 196.120685,91.073893 196.403564,91.1240234 L196.301514,91.6342773 C196.058023,91.5734046 195.805584,91.5429688 195.544189,91.5429688 C195.046466,91.5429688 194.638267,91.7542297 194.31958,92.1767578 C194.000894,92.599286 193.841553,93.1328093 193.841553,93.7773438 L193.841553,97 L193.309814,97 L193.309814,91.1616211 L193.760986,91.1616211 L193.814697,92.2143555 L193.852295,92.2143555 C194.092205,91.7846658 194.348225,91.4829924 194.620361,91.3093262 C194.892498,91.1356599 195.221922,91.0488281 195.608643,91.0488281 L195.608643,91.0488281 Z M200.915283,97 L200.781006,96.0761719 L200.738037,96.0761719 C200.444416,96.4521503 200.142742,96.7180168 199.833008,96.8737793 C199.523273,97.0295418 199.157147,97.1074219 198.734619,97.1074219 C198.1617,97.1074219 197.715903,96.9606134 197.397217,96.6669922 C197.07853,96.3733709 196.919189,95.9669622 196.919189,95.4477539 C196.919189,94.8784151 197.15641,94.4361995 197.630859,94.1210938 C198.105308,93.805988 198.791906,93.6394858 199.690674,93.621582 L200.80249,93.5893555 L200.80249,93.2026367 C200.80249,92.6476209 200.689698,92.2286798 200.464111,91.9458008 C200.238524,91.6629218 199.875084,91.5214844 199.373779,91.5214844 C198.833086,91.5214844 198.272708,91.6718735 197.692627,91.9726562 L197.493896,91.5107422 C198.13485,91.2099594 198.768633,91.0595703 199.395264,91.0595703 C200.036217,91.0595703 200.515135,91.2260726 200.832031,91.559082 C201.148927,91.8920915 201.307373,92.411292 201.307373,93.1166992 L201.307373,97 L200.915283,97 Z M198.766846,96.6240234 C199.389896,96.6240234 199.881346,96.4458839 200.241211,96.0895996 C200.601076,95.7333153 200.781006,95.2382844 200.781006,94.6044922 L200.781006,94.0297852 L199.760498,94.0727539 C198.940507,94.1121421 198.355959,94.2401519 198.006836,94.4567871 C197.657713,94.6734223 197.483154,95.0109027 197.483154,95.4692383 C197.483154,95.8344745 197.595051,96.1182444 197.818848,96.3205566 C198.042644,96.5228689 198.358641,96.6240234 198.766846,96.6240234 L198.766846,96.6240234 Z M210.491943,97 L210.491943,93.1704102 C210.491943,92.6010714 210.380942,92.1857109 210.158936,91.9243164 C209.936929,91.6629219 209.596763,91.5322266 209.138428,91.5322266 C208.540443,91.5322266 208.098227,91.6969385 207.811768,92.0263672 C207.525308,92.3557959 207.38208,92.8732061 207.38208,93.5786133 L207.38208,97 L206.8396,97 L206.8396,93.0092773 C206.8396,92.0245719 206.388432,91.5322266 205.486084,91.5322266 C204.873776,91.5322266 204.42798,91.7103661 204.148682,92.0666504 C203.869383,92.4229347 203.729736,92.9931601 203.729736,93.7773438 L203.729736,97 L203.197998,97 L203.197998,91.1616211 L203.638428,91.1616211 L203.751221,91.9619141 L203.783447,91.9619141 C203.944581,91.6718735 204.173745,91.447185 204.470947,91.2878418 C204.768149,91.1284986 205.095783,91.0488281 205.453857,91.0488281 C206.374109,91.0488281 206.964924,91.394365 207.226318,92.0854492 L207.247803,92.0854492 C207.437582,91.7524397 207.692707,91.4964202 208.013184,91.3173828 C208.33366,91.1383455 208.697996,91.0488281 209.106201,91.0488281 C209.743574,91.0488281 210.221597,91.2189111 210.540283,91.559082 C210.85897,91.899253 211.018311,92.4399377 211.018311,93.1811523 L211.018311,97 L210.491943,97 Z M215.266846,97.1074219 C214.418209,97.1074219 213.756676,96.8460313 213.282227,96.3232422 C212.807778,95.8004531 212.570557,95.0682013 212.570557,94.1264648 C212.570557,93.1954706 212.799721,92.4497912 213.258057,91.8894043 C213.716392,91.3290174 214.334062,91.0488281 215.111084,91.0488281 C215.798587,91.0488281 216.341062,91.2887346 216.738525,91.7685547 C217.135988,92.2483748 217.334717,92.900061 217.334717,93.7236328 L217.334717,94.1533203 L213.12915,94.1533203 C213.136312,94.9554077 213.323403,95.5677062 213.69043,95.9902344 C214.057456,96.4127625 214.582923,96.6240234 215.266846,96.6240234 C215.599855,96.6240234 215.892577,96.6007489 216.14502,96.5541992 C216.397462,96.5076495 216.717039,96.4073901 217.10376,96.253418 L217.10376,96.7368164 C216.774331,96.8800463 216.469972,96.9776202 216.190674,97.029541 C215.911376,97.0814618 215.603436,97.1074219 215.266846,97.1074219 L215.266846,97.1074219 Z M215.111084,91.5214844 C214.548907,91.5214844 214.097739,91.7067853 213.757568,92.0773926 C213.417397,92.4479999 213.218669,92.9824184 213.161377,93.6806641 L216.770752,93.6806641 C216.770752,93.0039029 216.623944,92.4748554 216.330322,92.0935059 C216.036701,91.7121563 215.630292,91.5214844 215.111084,91.5214844 L215.111084,91.5214844 Z M223.393311,97 L222.11499,93.0952148 C222.032633,92.8302396 221.927003,92.4417343 221.798096,91.9296875 L221.765869,91.9296875 L221.653076,92.3271484 L221.411377,93.105957 L220.111572,97 L219.585205,97 L217.914795,91.1616211 L218.484131,91.1616211 L219.418701,94.5454102 C219.637127,95.383305 219.780354,95.9991842 219.848389,96.3930664 L219.880615,96.3930664 C220.091879,95.5551716 220.245849,94.9983738 220.342529,94.7226562 L221.545654,91.1616211 L222.029053,91.1616211 L223.173096,94.7119141 C223.430909,95.5533896 223.58846,96.1101874 223.645752,96.3823242 L223.677979,96.3823242 C223.706624,96.1495757 223.849852,95.526535 224.107666,94.5131836 L224.999268,91.1616211 L225.536377,91.1616211 L223.951904,97 L223.393311,97 Z M231.509033,94.0727539 C231.509033,95.0252326 231.278078,95.7691217 230.816162,96.3044434 C230.354246,96.839765 229.716882,97.1074219 228.904053,97.1074219 C228.392006,97.1074219 227.940839,96.983888 227.550537,96.7368164 C227.160236,96.4897449 226.861248,96.1352562 226.653564,95.6733398 C226.445881,95.2114235 226.342041,94.6779002 226.342041,94.0727539 C226.342041,93.1202752 226.572996,92.3781765 227.034912,91.8464355 C227.496828,91.3146946 228.130611,91.0488281 228.936279,91.0488281 C229.738367,91.0488281 230.367673,91.3182753 230.824219,91.8571777 C231.280764,92.3960802 231.509033,93.1345982 231.509033,94.0727539 L231.509033,94.0727539 Z M226.900635,94.0727539 C226.900635,94.8748413 227.076984,95.5005674 227.429688,95.9499512 C227.782391,96.3993349 228.281003,96.6240234 228.925537,96.6240234 C229.570072,96.6240234 230.068683,96.3993349 230.421387,95.9499512 C230.77409,95.5005674 230.950439,94.8748413 230.950439,94.0727539 C230.950439,93.2670858 230.7723,92.6422548 230.416016,92.1982422 C230.059731,91.7542296 229.559329,91.5322266 228.914795,91.5322266 C228.27026,91.5322266 227.773439,91.7533344 227.424316,92.1955566 C227.075194,92.6377789 226.900635,93.2635051 226.900635,94.0727539 L226.900635,94.0727539 Z M235.424561,91.0488281 C235.671632,91.0488281 235.936603,91.073893 236.219482,91.1240234 L236.117432,91.6342773 C235.873941,91.5734046 235.621502,91.5429688 235.360107,91.5429688 C234.862384,91.5429688 234.454185,91.7542297 234.135498,92.1767578 C233.816812,92.599286 233.657471,93.1328093 233.657471,93.7773438 L233.657471,97 L233.125732,97 L233.125732,91.1616211 L233.576904,91.1616211 L233.630615,92.2143555 L233.668213,92.2143555 C233.908123,91.7846658 234.164143,91.4829924 234.436279,91.3093262 C234.708416,91.1356599 235.03784,91.0488281 235.424561,91.0488281 L235.424561,91.0488281 Z M237.92749,94.4379883 L240.908447,91.1616211 L241.552979,91.1616211 L239.25415,93.6538086 L241.751709,97 L241.112549,97 L238.894287,94.0512695 L237.938232,94.9213867 L237.938232,97 L237.406494,97 L237.406494,88.6425781 L237.938232,88.6425781 L237.938232,92.8320312 L237.900635,94.4379883 L237.92749,94.4379883 Z" id="Just-fucking-awesome"></path>
                </g>
            </g>
        </g>
    </g>
</svg>