
<svg width="77px" height="30px" viewBox="119 5 77 30" version="1.1" xmlns="http://www.w3.org/2000/svg" xmlns:xlink="http://www.w3.org/1999/xlink">
    <!-- Generator: Sketch 39.1 (31720) - http://www.bohemiancoding.com/sketch -->
    <desc>Created with Sketch.</desc>
    <defs></defs>
    <g id="Group-2" stroke="none" stroke-width="1" fill="none" fill-rule="evenodd" transform="translate(119.000000, 5.000000)">
        <g id="t" transform="translate(50.000000, 5.000000)" fill="#FFFFFF">
            <path d="M0.155,19.145 C0.155,17.1383233 0.8316599,14.3266847 2.185,10.71 C1.6249972,10.6166662 1.2050014,10.5233338 0.925,10.43 L0.925,9.8 C1.7650042,9.8933338 2.2783324,9.94 2.465,9.94 C3.4916718,7.2799867 4.59416077,4.97584307 5.7725,3.0275 C6.95083922,1.07915692 7.87832995,0.105 8.555,0.105 C8.7416676,0.105 8.91083257,0.1749993 9.0625,0.315 C9.21416742,0.4550007 9.29,0.6416655 9.29,0.875 C9.29,1.22500175 9.06250227,1.83166235 8.6075,2.695 C8.15249772,3.55833765 7.51083747,4.7133261 6.6825,6.16 C5.85416252,7.6066739 5.17166935,8.90166095 4.635,10.045 L5.93,10.045 C7.86667635,10.045 9.534993,9.9750007 10.935,9.835 L10.935,10.465 C8.4616543,10.7450014 6.46667425,10.885 4.95,10.885 L4.775,10.885 L4.25,10.885 C2.96666025,13.8016812 2.325,16.3333226 2.325,18.48 C2.325,19.5300052 2.47666515,20.2649979 2.78,20.685 C3.08333485,21.1050021 3.5849965,21.315 4.285,21.315 C5.47500595,21.315 6.6533275,20.784172 7.82,19.7225 C8.9866725,18.660828 10.0249954,17.196676 10.935,15.33 L11.39,15.68 C10.5266623,17.7100101 9.36000735,19.3724935 7.89,20.6675 C6.41999265,21.9625065 4.88000805,22.61 3.27,22.61 C1.19332295,22.61 0.155,21.4550115 0.155,19.145 L0.155,19.145 Z" id="Path"></path>
        </g>
        <g id="i" transform="translate(41.000000, 7.000000)" fill="#FFFFFF">
            <path d="M6.145,2.725 C6.145,2.258331 6.4249972,1.8383352 6.985,1.465 C7.5450028,1.0916648 8.11666375,0.905 8.7,0.905 C9.47000385,0.905 9.855,1.2549965 9.855,1.955 C9.855,2.421669 9.61583573,2.85916463 9.1375,3.2675 C8.65916427,3.67583538 8.1400028,3.88 7.58,3.88 C6.62332855,3.88 6.145,3.49500385 6.145,2.725 L6.145,2.725 Z" id="Path"></path>
            <path d="M0.685,16.97 C0.685,16.0599954 0.92999755,14.8350077 1.42,13.295 C1.91000245,11.7549923 2.56332925,10.3433397 3.38,9.06 C4.19667075,7.77666025 4.9783296,7.135 5.725,7.135 C6.2383359,7.135 6.495,7.3916641 6.495,7.905 C6.495,8.1850014 6.1916697,8.82666165 5.585,9.83 C4.9783303,10.8333383 4.3716697,11.970827 3.765,13.2425 C3.1583303,14.514173 2.855,15.6283285 2.855,16.585 C2.855,17.4016707 2.98916532,17.9558319 3.2575,18.2475 C3.52583467,18.5391681 3.9633303,18.685 4.57,18.685 C6.3900091,18.685 8.1866578,16.9000178 9.96,13.33 L10.275,13.68 C9.6216634,15.6400098 8.65917302,17.1683278 7.3875,18.265 C6.11582697,19.3616721 4.780007,19.91 3.38,19.91 C2.51666235,19.91 1.851669,19.6358361 1.385,19.0875 C0.918331,18.5391639 0.685,17.8333376 0.685,16.97 L0.685,16.97 Z" id="Path"></path>
        </g>
        <g id="l" transform="translate(33.000000, 0.000000)" fill="#FFFFFF">
            <path d="M0.705,23.445 C0.705,21.8583254 1.15999545,19.7408466 2.07,17.0925 C2.98000455,14.4441534 4.03582732,11.9358452 5.2375,9.5675 C6.43917267,7.19915483 7.65249387,5.14584203 8.8775,3.4075 C10.1025061,1.66915798 11.0066637,0.8 11.59,0.8 C11.9166683,0.8 12.1908322,1.09166375 12.4125,1.675 C12.6341678,2.25833625 12.745,2.8299972 12.745,3.39 C12.745,5.14000875 11.7883429,7.80581543 9.875,11.3875 C7.9616571,14.9691846 5.8150119,17.7399902 3.435,19.7 C3.13166515,21.0533401 2.98,22.2316617 2.98,23.235 C2.98,25.0316757 3.4933282,25.93 4.52,25.93 C5.38333765,25.93 6.26416217,25.3816722 7.1625,24.285 C8.06083782,23.1883279 8.8599965,21.8700077 9.56,20.33 L10.085,20.61 C8.0783233,24.9033548 5.89667845,27.05 3.54,27.05 L3.505,27.05 C1.638324,27.05 0.705,25.8483454 0.705,23.445 Z M3.75,18.51 C5.6633429,16.5733236 7.4599916,14.0241825 9.14,10.8625 C10.8200084,7.70081752 11.66,5.47833975 11.66,4.195 C11.66,3.8216648 11.5783341,3.635 11.415,3.635 C11.0883317,3.635 10.4408382,4.38749247 9.4725,5.8925 C8.50416183,7.39750752 7.4600056,9.35165465 6.34,11.755 C5.2199944,14.1583453 4.3566697,16.4099895 3.75,18.51 Z" id="Combined-Shape"></path>
        </g>
        <g id="o" transform="translate(20.000000, 13.000000)" fill="#FFFFFF">
            <path d="M0.475,10.935 C0.475,9.4416592 0.900829075,7.95417408 1.7525,6.4725 C2.60417092,4.99082593 3.5199951,4.25 4.5,4.25 C4.71000105,4.25 4.9549986,4.30833275 5.235,4.425 C4.79166445,4.7983352 4.2666697,5.72582593 3.66,7.2075 C3.0533303,8.68917408 2.75,9.8499958 2.75,10.69 C2.75,12.0200067 3.1699958,12.685 4.01,12.685 C5.0366718,12.685 6.28499265,11.751676 7.755,9.885 C7.1016634,9.34833065 6.59416847,8.64833765 6.2325,7.785 C5.87083152,6.92166235 5.69,6.023338 5.69,5.09 C5.69,3.8766606 5.99916357,2.83833765 6.6175,1.975 C7.23583642,1.11166235 8.06999475,0.68 9.12,0.68 C10.730008,0.68 11.535,1.57832435 11.535,3.375 C11.535,5.1950091 10.7533411,7.271655 9.19,9.605 C9.6100021,9.8383345 10.053331,9.955 10.52,9.955 C11.19667,9.955 11.896663,9.75083538 12.62,9.3425 C13.3433369,8.93416463 13.8916648,8.29833765 14.265,7.435 L14.685,7.785 C14.2416644,8.8116718 13.6116707,9.56999755 12.795,10.06 C11.9783292,10.5500025 11.1383376,10.795 10.275,10.795 C9.64499685,10.795 9.08500245,10.6783345 8.595,10.445 C6.728324,12.8950123 4.94334185,14.12 3.24,14.12 C2.28332855,14.12 1.58333555,13.8283363 1.14,13.245 C0.69666445,12.6616638 0.475,11.8916715 0.475,10.935 Z M7.195,5.195 C7.195,6.7816746 7.5916627,8.041662 8.385,8.975 C9.7383401,6.9683233 10.415,5.1716746 10.415,3.585 C10.415,2.2783268 10.0650035,1.625 9.365,1.625 C8.8516641,1.625 8.361669,1.98082978 7.895,2.6925 C7.428331,3.40417022 7.195,4.23832855 7.195,5.195 Z" id="Combined-Shape"></path>
        </g>
        <g id="a" transform="translate(59.000000, 13.000000)" fill="#FFFFFF">
            <path d="M0.36,11.74 C0.36,10.3633265 0.844161825,8.8350084 1.8125,7.155 C2.78083818,5.4749916 4.0349923,4.0283394 5.575,2.815 C7.1150077,1.6016606 8.6083261,0.995 10.055,0.995 C10.9650046,0.995 11.7233303,1.23999755 12.33,1.73 C12.9366697,2.22000245 13.24,2.84999615 13.24,3.62 C13.24,4.62333835 12.6683391,5.125 11.525,5.125 C11.6416673,4.7049979 11.7,4.29666865 11.7,3.9 C11.7,2.5933268 11.1283391,1.94 9.985,1.94 C8.9583282,1.94 7.86750578,2.52916078 6.7125,3.7075 C5.55749423,4.88583923 4.61250368,6.25082558 3.8775,7.8025 C3.14249633,9.35417443 2.775,10.701661 2.775,11.845 C2.775,12.7550046 3.08999685,13.21 3.72,13.21 C4.1400021,13.21 4.6299972,13.0116687 5.19,12.615 C5.7500028,12.2183314 6.263331,11.7750025 6.73,11.285 C7.196669,10.7949976 7.75083013,10.1358375 8.3925,9.3075 C9.03416988,8.47916253 9.50666515,7.84333555 9.81,7.4 L11.07,5.58 C12.003338,5.74333415 12.47,6.0349979 12.47,6.455 C12.47,6.6416676 12.1316701,7.3416606 11.455,8.555 C10.77833,9.7683394 10.44,10.6899969 10.44,11.32 C10.44,11.7166687 10.5391657,12.0724984 10.7375,12.3875 C10.9358343,12.7025016 11.2333314,12.86 11.63,12.86 C12.3066701,12.86 13.1583282,12.3758382 14.185,11.4075 C15.2116718,10.4391618 16.2266617,9.08000875 17.23,7.33 L17.58,7.68 C16.8566631,9.546676 15.8358399,11.0749941 14.5175,12.265 C13.1991601,13.455006 11.9100063,14.05 10.65,14.05 C9.83332925,14.05 9.20916883,13.8108357 8.7775,13.3325 C8.34583118,12.8541643 8.13,12.2766701 8.13,11.6 C8.13,11.3199986 8.16499965,10.9816687 8.235,10.585 C7.18499475,11.985007 6.24583748,13.0116634 5.4175,13.665 C4.58916253,14.3183366 3.76667075,14.645 2.95,14.645 C2.17999615,14.645 1.55583573,14.3941692 1.0775,13.8925 C0.599164275,13.3908308 0.36,12.673338 0.36,11.74 L0.36,11.74 Z" id="Lolita"></path>
        </g>
        <g id="L" transform="translate(0.072213, 0.000000)" fill="#FFFFFF">
            <path d="M0.878484167,24.81 C0.878484167,23.7833282 1.7286753,23.27 3.42908308,23.27 C4.4539864,23.27 5.88650024,23.5149976 7.72666756,24.005 C8.12265293,23.32833 8.53027882,22.4533387 8.94955745,21.38 C9.36883608,20.3066613 9.70076002,19.4141702 9.94533922,18.7025 C10.1899184,17.9908298 10.5684282,16.8183415 11.0808798,15.185 L12.0941315,12 C11.0226416,11.6499983 10.1782737,11.1366701 9.56100239,10.46 C8.94373108,9.78332995 8.63510005,9.0483373 8.63510005,8.255 C8.63510005,7.57832995 8.83891299,6.94833625 9.24654499,6.365 C9.654177,5.78166375 10.1724442,5.49 10.8013621,5.49 C10.4985498,5.9100021 10.3471459,6.6333282 10.3471459,7.66 C10.3471459,9.3400084 11.0109938,10.5416631 12.3387094,11.265 C12.8511611,9.70165885 13.3403122,8.3600056 13.8061773,7.24 C14.2720424,6.1199944 14.8136026,5.03500525 15.4308739,3.985 C16.0481452,2.93499475 16.7294627,2.14166935 17.474847,1.605 C18.2202312,1.06833065 19.0121901,0.8 19.8507473,0.8 C20.7125979,0.8 21.4929103,1.0799972 22.191708,1.64 C22.8905057,2.2000028 23.2398993,3.1099937 23.2398993,4.37 C23.2398993,5.2100042 23.0652025,6.08499545 22.7158037,6.995 C22.3664048,7.90500455 21.8656073,8.77416253 21.2133961,9.6025 C20.5611849,10.4308375 19.6818776,11.1074974 18.5754479,11.6325 C17.4690182,12.1575026 16.2286708,12.42 14.8543686,12.42 L14.2953333,12.42 C12.3154064,18.3933632 10.638317,22.4066564 9.26401485,24.46 C9.47365417,24.5300004 9.99774459,24.6933321 10.8363019,24.95 L12.5483477,25.475 C12.8278668,25.5683338 13.3286643,25.7083324 14.0507553,25.895 C14.7728463,26.0816676 15.331876,26.2158329 15.7278614,26.2975 C16.1238468,26.3791671 16.5838817,26.4549997 17.10798,26.525 C17.6320783,26.5950004 18.1037597,26.63 18.5230383,26.63 C19.4547686,26.63 20.2816668,26.4433352 21.0037578,26.07 C20.3049601,28.0533433 19.0820824,29.045 17.3350881,29.045 C16.7294634,29.045 16.0015601,28.9225012 15.1513562,28.6775 C14.3011523,28.4324988 13.625658,28.2050011 13.1248529,27.995 C12.6240479,27.784999 11.7563871,27.3941695 10.5218445,26.8225 C9.28730182,26.2508305 8.53028231,25.9066673 8.25076323,25.79 C7.01622059,27.1666736 5.72346421,27.855 4.37245528,27.855 C3.32425871,27.855 2.4798908,27.5166701 1.83932622,26.84 C1.19876165,26.16333 0.878484167,25.4866701 0.878484167,24.81 Z M14.5049715,11.755 C16.4150186,11.7316666 18.0338757,10.7516764 19.3615914,8.815 C20.689307,6.87832365 21.3531549,5.08167495 21.3531549,3.425 C21.3531549,2.2583275 20.9338826,1.675 20.0953253,1.675 C19.5828737,1.675 19.0820761,1.91999755 18.5929177,2.41 C18.1037593,2.90000245 17.6146083,3.68749458 17.1254499,4.7725 C16.6362915,5.85750543 16.2170191,6.87832855 15.8676203,7.835 C15.5182214,8.79167145 15.0640097,10.0983251 14.5049715,11.755 Z M2.52065059,26.175 C3.00980899,26.6183356 3.58048524,26.84 4.23269644,26.84 C5.21101324,26.84 6.1077902,26.3033387 6.9230542,25.23 C5.19935316,24.5299965 3.87165742,24.18 2.93992713,24.18 C2.17124964,24.18 1.78691666,24.4016645 1.78691666,24.845 C1.78691666,25.2883356 2.03149219,25.7316645 2.52065059,26.175 Z" id="Combined-Shape"></path>
        </g>
    </g>
</svg>