<?xml version="1.0" encoding="UTF-8"?>
<svg width="45px" height="26px" viewBox="0 0 45 26" version="1.1" xmlns="http://www.w3.org/2000/svg" xmlns:xlink="http://www.w3.org/1999/xlink">
    <!-- Generator: sketchtool 41 (35326) - http://www.bohemiancoding.com/sketch -->
    <title>A765DF0D-2CFF-4C98-AE41-080DD8599020</title>
    <desc>Created with sketchtool.</desc>
    <defs></defs>
    <g id="Showcase" stroke="none" stroke-width="1" fill="none" fill-rule="evenodd">
        <g transform="translate(-696.000000, -1418.000000)" id="Sevices-we-offer" fill="#353535">
            <g transform="translate(0.000000, 1209.000000)">
                <g id="Services-icons" transform="translate(177.000000, 198.000000)">
                    <g id="WordPress-Development" transform="translate(445.000000, 11.000000)">
                        <g id="Code" transform="translate(74.500000, 0.000000)">
                            <path d="M43.517,16.002 C43.443,16.075 43.354,16.121 43.266,16.167 C43.265,16.167 43.265,16.168 43.264,16.169 L33.903,25.431 C33.708,25.624 33.453,25.721 33.197,25.721 C32.942,25.721 32.686,25.624 32.491,25.431 C32.101,25.045 32.101,24.42 32.491,24.034 L41.357,15.262 L32.744,6.739 C32.354,6.353 32.354,5.728 32.744,5.342 C33.134,4.956 33.766,4.956 34.156,5.342 L43.517,14.605 C43.907,14.99 43.907,15.616 43.517,16.002 L43.517,16.002 Z M18.299,25.133 C18.131,25.495 17.769,25.708 17.391,25.708 C17.252,25.708 17.11,25.679 16.975,25.617 C16.474,25.39 16.254,24.803 16.484,24.307 L27.506,0.576 C27.736,0.081 28.329,-0.136 28.83,0.091 C29.331,0.319 29.551,0.906 29.321,1.401 L18.299,25.133 L18.299,25.133 Z M2.454,15.678 L11.067,24.201 C11.457,24.587 11.457,25.212 11.067,25.598 C10.872,25.791 10.617,25.888 10.361,25.888 C10.106,25.888 9.85,25.791 9.655,25.598 L0.294,16.336 C-0.096,15.95 -0.096,15.324 0.294,14.938 C0.368,14.865 0.457,14.819 0.545,14.773 C0.546,14.773 0.546,14.772 0.546,14.771 L9.908,5.509 C10.298,5.123 10.93,5.123 11.32,5.509 C11.71,5.895 11.71,6.52 11.32,6.906 L2.454,15.678 L2.454,15.678 Z" id="Shape"></path>
                        </g>
                    </g>
                </g>
            </g>
        </g>
    </g>
</svg>