<?xml version="1.0" encoding="UTF-8"?>
<svg width="31px" height="47px" viewBox="0 0 31 47" version="1.1" xmlns="http://www.w3.org/2000/svg" xmlns:xlink="http://www.w3.org/1999/xlink">
    <!-- Generator: sketchtool 41 (35326) - http://www.bohemiancoding.com/sketch -->
    <title>D9572CEC-7809-429B-9A15-186D62C129E5</title>
    <desc>Created with sketchtool.</desc>
    <defs></defs>
    <g id="Showcase" stroke="none" stroke-width="1" fill="none" fill-rule="evenodd">
        <g transform="translate(-480.000000, -1408.000000)" id="Sevices-we-offer" fill="#353535">
            <g transform="translate(0.000000, 1209.000000)">
                <g id="Services-icons" transform="translate(177.000000, 198.000000)">
                    <g id="Responsive-Coding" transform="translate(222.000000, 1.000000)">
                        <g id="Phone-2" transform="translate(81.000000, 0.000000)">
                            <path d="M20.369,47 L10.632,47 C5.315,47 0.989,42.963 0.989,38 L0.989,9 C0.989,4.037 5.315,0 10.632,0 L20.369,0 C25.687,0 30.012,4.037 30.012,9 L30.012,38 C30.012,42.963 25.687,47 20.369,47 L20.369,47 Z M10.632,45 L20.369,45 C24.597,45 28.036,41.859 28.036,38 L28.036,36.481 L2.965,36.481 L2.965,38 C2.965,41.859 6.405,45 10.632,45 L10.632,45 Z M2.965,34.481 L28.036,34.481 L28.036,9 L2.965,9 L2.965,34.481 L2.965,34.481 Z M20.369,2 L10.632,2 C7.166,2 4.233,4.112 3.288,7 L27.713,7 C26.768,4.112 23.835,2 20.369,2 L20.369,2 Z M19.703,41.833 L11.297,41.833 L11.297,39.833 L19.703,39.833 L19.703,41.833 L19.703,41.833 Z" id="Shape"></path>
                        </g>
                    </g>
                </g>
            </g>
        </g>
    </g>
</svg>