<?xml version="1.0" encoding="UTF-8"?>
<svg width="61px" height="44px" viewBox="0 0 61 44" version="1.1" xmlns="http://www.w3.org/2000/svg" xmlns:xlink="http://www.w3.org/1999/xlink">
    <!-- Generator: sketchtool 41 (35326) - http://www.bohemiancoding.com/sketch -->
    <title>3DD89188-9C33-4706-9D05-CFBDE64B8F84</title>
    <desc>Created with sketchtool.</desc>
    <defs></defs>
    <g id="Showcase" stroke="none" stroke-width="1" fill="none" fill-rule="evenodd">
        <g transform="translate(-1134.000000, -1417.000000)" id="Sevices-we-offer" fill="#353535">
            <g transform="translate(0.000000, 1209.000000)">
                <g id="Services-icons" transform="translate(177.000000, 198.000000)">
                    <g id="Free-hosting" transform="translate(891.000000, 9.000000)">
                        <g id="Upload" transform="translate(66.500000, 0.000000)">
                            <path d="M47.86,34.448 L36.429,34.448 C35.875,34.448 35.425,33.999 35.425,33.444 C35.425,32.888 35.875,32.439 36.429,32.439 L47.86,32.439 C53.633,32.439 57.987,28.266 57.987,22.732 C57.987,17.303 53.444,12.887 47.86,12.887 C46.962,12.887 46.071,13.101 45.01,13.42 C44.597,13.537 44.174,13.558 43.77,13.482 C42.846,13.299 42.06,12.637 41.755,11.793 C39.862,6.537 34.815,3.006 29.196,3.006 C22.08,3.006 16.226,8.569 15.868,15.672 C15.831,16.476 15.41,17.23 14.743,17.686 C14.092,18.14 13.239,18.267 12.463,18.014 L12.105,17.874 C11.347,17.643 10.566,17.513 9.854,17.513 C5.454,17.513 2.007,20.808 2.007,25.016 C2.007,29.248 5.38,32.439 9.854,32.439 L21.962,32.439 C22.517,32.439 22.966,32.888 22.966,33.444 C22.966,33.999 22.517,34.448 21.962,34.448 L9.854,34.448 C4.328,34.448 0,30.305 0,25.016 C0,19.682 4.328,15.504 9.854,15.504 C10.767,15.504 11.747,15.664 12.768,15.98 L13.14,16.123 C13.263,16.159 13.457,16.135 13.603,16.033 C13.763,15.923 13.856,15.758 13.864,15.575 C14.275,7.399 21.01,0.997 29.196,0.997 C35.659,0.997 41.464,5.061 43.642,11.11 C43.708,11.293 43.925,11.465 44.147,11.51 C44.238,11.525 44.347,11.52 44.449,11.492 C45.496,11.176 46.648,10.878 47.86,10.878 C54.55,10.878 59.994,16.196 59.994,22.732 C59.994,29.302 54.664,34.448 47.86,34.448 L47.86,34.448 Z M28.516,25.1 C28.521,25.095 28.522,25.088 28.527,25.083 C28.724,24.886 28.982,24.788 29.24,24.789 C29.497,24.788 29.755,24.886 29.952,25.083 C29.956,25.086 29.955,25.092 29.959,25.096 L34.114,29.256 C34.506,29.648 34.506,30.284 34.114,30.676 C33.918,30.872 33.662,30.971 33.405,30.971 C33.148,30.971 32.892,30.872 32.696,30.676 L30.246,28.224 L30.246,43.983 C30.246,44.539 29.797,44.988 29.243,44.988 C28.689,44.988 28.239,44.539 28.239,43.983 L28.239,28.218 L25.784,30.676 C25.588,30.872 25.331,30.971 25.074,30.971 C24.818,30.971 24.561,30.872 24.365,30.676 C23.973,30.284 23.973,29.648 24.365,29.256 L28.516,25.1 L28.516,25.1 Z" id="Shape"></path>
                        </g>
                    </g>
                </g>
            </g>
        </g>
    </g>
</svg>