<svg width="77" height="30" viewBox="119 5 77 30" xmlns="http://www.w3.org/2000/svg"><g fill="#FFF" fill-rule="evenodd"><path d="M169.155 29.145c0-2.007.677-4.818 2.03-8.435-.56-.093-.98-.187-1.26-.28v-.63c.84.093 1.353.14 1.54.14 1.027-2.66 2.13-4.964 3.308-6.913 1.178-1.948 2.105-2.922 2.782-2.922a.73.73 0 0 1 .508.21c.151.14.227.327.227.56 0 .35-.227.957-.682 1.82-.456.863-1.097 2.018-1.926 3.465a54.892 54.892 0 0 0-2.047 3.885h1.295c1.937 0 3.605-.07 5.005-.21v.63c-2.473.28-4.468.42-5.985.42h-.7c-1.283 2.917-1.925 5.448-1.925 7.595 0 1.05.152 1.785.455 2.205.303.42.805.63 1.505.63 1.19 0 2.368-.53 3.535-1.593 1.167-1.061 2.205-2.525 3.115-4.392l.455.35c-.863 2.03-2.03 3.692-3.5 4.988-1.47 1.295-3.01 1.942-4.62 1.942-2.077 0-3.115-1.155-3.115-3.465zM166.145 14.725c0-.467.28-.887.84-1.26.56-.373 1.132-.56 1.715-.56.77 0 1.155.35 1.155 1.05 0 .467-.24.904-.717 1.313-.479.408-.998.612-1.558.612-.957 0-1.435-.385-1.435-1.155z"/><path d="M160.685 28.97c0-.91.245-2.135.735-3.675a18.028 18.028 0 0 1 1.96-4.235c.817-1.283 1.598-1.925 2.345-1.925.513 0 .77.257.77.77 0 .28-.303.922-.91 1.925a39.425 39.425 0 0 0-1.82 3.413c-.607 1.271-.91 2.385-.91 3.342 0 .817.134 1.37.403 1.662.268.292.705.438 1.312.438 1.82 0 3.617-1.785 5.39-5.355l.315.35c-.653 1.96-1.616 3.488-2.887 4.585-1.272 1.097-2.608 1.645-4.008 1.645-.863 0-1.528-.274-1.995-.823-.467-.548-.7-1.254-.7-2.117z"/><path d="M152.705 28.445c0-1.587.455-3.704 1.365-6.352a58.927 58.927 0 0 1 3.168-7.525c1.201-2.369 2.414-4.422 3.64-6.16 1.225-1.739 2.129-2.608 2.712-2.608.327 0 .6.292.822.875.222.583.333 1.155.333 1.715 0 1.75-.957 4.416-2.87 7.997-1.913 3.582-4.06 6.353-6.44 8.313-.303 1.353-.455 2.532-.455 3.535 0 1.797.513 2.695 1.54 2.695.863 0 1.744-.548 2.642-1.645.899-1.097 1.698-2.415 2.398-3.955l.525.28c-2.007 4.293-4.188 6.44-6.545 6.44h-.035c-1.867 0-2.8-1.202-2.8-3.605zm3.045-4.935c1.913-1.937 3.71-4.486 5.39-7.648 1.68-3.161 2.52-5.384 2.52-6.667 0-.373-.082-.56-.245-.56-.327 0-.974.752-1.942 2.258-.969 1.505-2.013 3.459-3.133 5.862s-1.983 4.655-2.59 6.755z"/><path d="M139.475 28.935c0-1.493.426-2.98 1.277-4.462.852-1.482 1.768-2.223 2.748-2.223.21 0 .455.058.735.175-.443.373-.968 1.3-1.575 2.783-.607 1.481-.91 2.642-.91 3.482 0 1.33.42 1.995 1.26 1.995 1.027 0 2.275-.933 3.745-2.8-.653-.537-1.16-1.237-1.522-2.1a6.908 6.908 0 0 1-.543-2.695c0-1.213.31-2.252.928-3.115.618-.863 1.452-1.295 2.502-1.295 1.61 0 2.415.898 2.415 2.695 0 1.82-.782 3.897-2.345 6.23.42.233.863.35 1.33.35.677 0 1.377-.204 2.1-.612.723-.409 1.272-1.045 1.645-1.908l.42.35c-.443 1.027-1.073 1.785-1.89 2.275s-1.657.735-2.52.735c-.63 0-1.19-.117-1.68-.35-1.867 2.45-3.652 3.675-5.355 3.675-.957 0-1.657-.292-2.1-.875-.443-.583-.665-1.353-.665-2.31zm6.72-5.74c0 1.587.397 2.847 1.19 3.78 1.353-2.007 2.03-3.803 2.03-5.39 0-1.307-.35-1.96-1.05-1.96-.513 0-1.003.356-1.47 1.067-.467.712-.7 1.546-.7 2.503zM178.36 29.74c0-1.377.484-2.905 1.453-4.585a15.047 15.047 0 0 1 3.762-4.34c1.54-1.213 3.033-1.82 4.48-1.82.91 0 1.668.245 2.275.735s.91 1.12.91 1.89c0 1.003-.572 1.505-1.715 1.505.117-.42.175-.828.175-1.225 0-1.307-.572-1.96-1.715-1.96-1.027 0-2.117.59-3.273 1.767a14.926 14.926 0 0 0-2.835 4.095c-.735 1.552-1.102 2.9-1.102 4.043 0 .91.315 1.365.945 1.365.42 0 .91-.198 1.47-.595.56-.397 1.073-.84 1.54-1.33.467-.49 1.02-1.15 1.662-1.978a43.747 43.747 0 0 0 1.418-1.907l1.26-1.82c.933.163 1.4.455 1.4.875 0 .187-.338.887-1.015 2.1-.677 1.213-1.015 2.135-1.015 2.765 0 .397.1.752.297 1.067.199.316.496.473.893.473.677 0 1.528-.484 2.555-1.452 1.027-.969 2.042-2.328 3.045-4.078l.35.35c-.723 1.867-1.744 3.395-3.063 4.585-1.318 1.19-2.607 1.785-3.867 1.785-.817 0-1.44-.24-1.873-.718-.431-.478-.647-1.055-.647-1.732 0-.28.035-.618.105-1.015-1.05 1.4-1.99 2.427-2.818 3.08-.828.653-1.65.98-2.467.98-.77 0-1.394-.25-1.873-.753-.478-.501-.717-1.219-.717-2.152z"/><g><path d="M119.95 29.81c0-1.027.85-1.54 2.551-1.54 1.025 0 2.458.245 4.298.735.396-.677.803-1.552 1.223-2.625a71.42 71.42 0 0 0 .996-2.677 155.2 155.2 0 0 0 1.135-3.518L131.166 17c-1.071-.35-1.916-.863-2.533-1.54s-.926-1.412-.926-2.205c0-.677.204-1.307.612-1.89.407-.583.926-.875 1.555-.875-.303.42-.455 1.143-.455 2.17 0 1.68.664 2.882 1.992 3.605a56.298 56.298 0 0 1 1.467-4.025 26.49 26.49 0 0 1 1.625-3.255c.617-1.05 1.299-1.843 2.044-2.38.745-.537 1.537-.805 2.376-.805.862 0 1.642.28 2.34.84.7.56 1.05 1.47 1.05 2.73 0 .84-.176 1.715-.525 2.625-.35.91-.85 1.78-1.502 2.608-.653.828-1.532 1.504-2.638 2.03-1.107.525-2.347.787-3.721.787h-.56c-1.98 5.973-3.656 9.987-5.03 12.04.209.07.733.233 1.572.49l1.712.525c.28.093.78.233 1.502.42.722.187 1.281.32 1.677.402.396.082.856.158 1.38.228.524.07.996.105 1.415.105.932 0 1.759-.187 2.481-.56-.699 1.983-1.922 2.975-3.669 2.975-.605 0-1.333-.122-2.183-.368-.85-.245-1.526-.472-2.027-.682-.5-.21-1.368-.6-2.603-1.172a98.395 98.395 0 0 0-2.271-1.033c-1.235 1.377-2.527 2.065-3.878 2.065-1.049 0-1.893-.338-2.533-1.015-.641-.677-.961-1.353-.961-2.03zm13.627-13.055c1.91-.023 3.53-1.003 4.857-2.94 1.328-1.937 1.991-3.733 1.991-5.39 0-1.167-.419-1.75-1.257-1.75-.513 0-1.014.245-1.503.735-.489.49-.978 1.277-1.467 2.363a45.32 45.32 0 0 0-1.258 3.062c-.35.957-.804 2.263-1.363 3.92zm-11.984 14.42a2.47 2.47 0 0 0 1.712.665c.978 0 1.875-.537 2.69-1.61-1.723-.7-3.051-1.05-3.983-1.05-.769 0-1.153.222-1.153.665 0 .443.245.887.734 1.33z"/></g></g></svg>