<svg width="246" height="100" viewBox="0 0 246 100" xmlns="http://www.w3.org/2000/svg"><title>4F2CE15C-4F98-49BE-927B-64465DAC3BBD</title><g fill="#000" fill-rule="evenodd"><path d="M80.071 98.982c-.33 0-.6-.048-.811-.145v-.473c.28.072.546.108.8.108.867 0 1.3-.473 1.3-1.418v-7.907h.548V97c0 1.321-.612 1.982-1.837 1.982zm4.335-7.82v3.78c0 .588.123 1.015.37 1.282.247.267.63.4 1.15.4.694 0 1.205-.175 1.533-.526.328-.351.491-.922.491-1.714v-3.222h.527V97h-.451l-.097-.806h-.032c-.38.61-1.055.913-2.025.913-1.329 0-1.993-.71-1.993-2.132v-3.813h.527zm9.646 4.318c0 .523-.199.925-.596 1.206-.398.28-.962.421-1.692.421-.78 0-1.4-.12-1.858-.36v-.574c.587.293 1.206.44 1.858.44.576 0 1.014-.096 1.313-.287.3-.192.449-.447.449-.765 0-.294-.12-.541-.358-.742-.238-.2-.629-.397-1.173-.59-.584-.212-.994-.393-1.23-.546a1.7 1.7 0 0 1-.535-.515 1.295 1.295 0 0 1-.18-.701c0-.437.184-.783.551-1.037.367-.254.88-.381 1.539-.381.63 0 1.228.118 1.794.354l-.199.484c-.573-.237-1.105-.355-1.595-.355-.476 0-.854.079-1.133.237-.28.157-.42.376-.42.655 0 .304.109.548.326.73.216.183.64.387 1.27.613.526.19.91.36 1.15.513.24.152.42.324.54.518.119.193.179.42.179.682zm3.045 1.155c.337 0 .63-.029.881-.086v.43a2.818 2.818 0 0 1-.891.128c-.516 0-.896-.137-1.142-.413-.245-.276-.368-.71-.368-1.3v-3.77h-.864v-.312l.864-.242.269-1.321h.274v1.413h1.713v.462H96.12v3.695c0 .447.079.779.236.993.158.215.405.323.741.323zm7.17-5.011h-1.374V97h-.532v-5.376h-1.085v-.312l1.085-.199v-.45c0-.717.132-1.243.395-1.577.263-.335.694-.503 1.292-.503.322 0 .644.049.966.146l-.123.461a2.85 2.85 0 0 0-.854-.134c-.416 0-.71.123-.884.368-.173.245-.26.644-.26 1.195v.543h1.375v.462zm1.59-.462v3.78c0 .588.124 1.015.371 1.282.247.267.63.4 1.15.4.694 0 1.205-.175 1.533-.526.328-.351.492-.922.492-1.714v-3.222h.526V97h-.451l-.097-.806h-.032c-.38.61-1.055.913-2.025.913-1.328 0-1.993-.71-1.993-2.132v-3.813h.527zm8.358 5.945c-.834 0-1.488-.263-1.96-.79-.473-.525-.71-1.26-.71-2.201 0-.967.246-1.72.736-2.259.491-.539 1.162-.808 2.015-.808.505 0 .988.088 1.45.263l-.145.473c-.505-.169-.944-.253-1.316-.253-.716 0-1.259.221-1.628.664-.368.442-.553 1.078-.553 1.909 0 .788.185 1.405.553 1.85.37.446.885.669 1.547.669.53 0 1.023-.095 1.477-.285v.494c-.372.183-.86.274-1.466.274zm3.416-2.669l2.981-3.276h.645l-2.3 2.492L121.456 97h-.639l-2.218-2.949-.956.87V97h-.532v-8.357h.532v4.189l-.038 1.606h.027zM122.965 97h-.532v-5.838h.532V97zm-.607-7.46c0-.344.112-.516.338-.516a.3.3 0 0 1 .26.134c.063.09.095.217.095.382a.675.675 0 0 1-.094.38.297.297 0 0 1-.261.14c-.226 0-.338-.173-.338-.52zM128.99 97v-3.787c0-.587-.124-1.014-.37-1.28-.248-.267-.63-.4-1.15-.4-.698 0-1.21.176-1.534.528-.324.353-.486.925-.486 1.716V97h-.531v-5.838h.45l.103.8h.032c.38-.609 1.055-.913 2.025-.913 1.325 0 1.987.71 1.987 2.132V97h-.526zm6.972-5.838v.37l-1.209.075c.322.401.484.842.484 1.322 0 .562-.188 1.018-.562 1.367-.374.349-.876.523-1.506.523-.265 0-.451-.01-.559-.032a1.39 1.39 0 0 0-.483.392.792.792 0 0 0-.167.478c0 .186.07.322.212.408.142.086.379.13.712.13h1.02c.634 0 1.12.127 1.456.383.337.256.505.635.505 1.136 0 .616-.25 1.092-.75 1.426-.499.335-1.21.503-2.134.503-.734 0-1.303-.142-1.706-.425-.402-.283-.604-.676-.604-1.181 0-.401.125-.734.373-1 .25-.264.587-.445 1.013-.542a1.03 1.03 0 0 1-.422-.32.76.76 0 0 1-.158-.475c0-.39.249-.734.746-1.031a1.664 1.664 0 0 1-.795-.658 1.878 1.878 0 0 1-.284-1.029c0-.583.185-1.051.556-1.404.37-.353.87-.53 1.5-.53.384 0 .681.038.893.114h1.869zm-4.727 6.826c0 .802.596 1.203 1.789 1.203 1.532 0 2.298-.488 2.298-1.466 0-.35-.12-.605-.36-.763-.24-.157-.628-.236-1.165-.236h-.956c-1.07 0-1.606.42-1.606 1.262zm.446-5.006c0 .452.137.802.41 1.05.275.25.64.374 1.1.374.486 0 .86-.124 1.119-.37.26-.248.39-.606.39-1.075 0-.498-.134-.871-.4-1.12-.267-.249-.64-.373-1.12-.373-.466 0-.832.133-1.099.4s-.4.638-.4 1.114zM143.562 97l-.134-.924h-.043c-.293.376-.595.642-.905.798-.31.156-.675.233-1.098.233-.573 0-1.019-.146-1.337-.44-.319-.294-.478-.7-.478-1.22 0-.569.237-1.01.711-1.326.475-.315 1.161-.482 2.06-.5l1.112-.032v-.386c0-.555-.113-.974-.338-1.257-.226-.283-.59-.425-1.09-.425-.541 0-1.102.15-1.682.452l-.199-.462c.641-.301 1.275-.451 1.902-.451.64 0 1.12.166 1.436.5.317.332.476.851.476 1.557V97h-.392zm-2.148-.376c.623 0 1.115-.178 1.475-.534.36-.357.54-.852.54-1.486v-.574l-1.021.043c-.82.04-1.405.167-1.754.384-.349.216-.523.554-.523 1.012 0 .365.112.65.335.852.224.202.54.303.948.303zm9.099.376l-1.278-3.905a23.845 23.845 0 0 1-.317-1.165h-.033l-.112.397-.242.779-1.3 3.894h-.526l-1.67-5.838h.569l.934 3.383c.219.838.362 1.454.43 1.848H147c.212-.838.365-1.395.462-1.67l1.203-3.561h.484l1.144 3.55c.258.841.415 1.398.472 1.67h.033c.028-.232.171-.855.43-1.869l.89-3.351h.538L151.072 97h-.56zm5.645.107c-.849 0-1.51-.261-1.985-.784-.474-.523-.711-1.255-.711-2.197 0-.93.229-1.676.687-2.237.459-.56 1.076-.84 1.853-.84.688 0 1.23.24 1.628.72.397.48.596 1.131.596 1.955v.43h-4.206c.007.801.195 1.414.562 1.836.367.423.892.634 1.576.634.333 0 .626-.023.878-.07.253-.046.572-.147.959-.3v.483c-.33.143-.634.24-.913.293-.28.051-.587.077-.924.077zm-.156-5.586c-.562 0-1.013.186-1.353.556-.34.371-.54.905-.597 1.604h3.61c0-.677-.147-1.206-.44-1.587-.294-.382-.7-.573-1.22-.573zm7.455 3.959c0 .523-.198.925-.596 1.206-.397.28-.961.421-1.692.421-.78 0-1.4-.12-1.858-.36v-.574c.587.293 1.206.44 1.858.44.577 0 1.014-.096 1.313-.287.3-.192.449-.447.449-.765 0-.294-.12-.541-.357-.742-.238-.2-.63-.397-1.174-.59-.584-.212-.994-.393-1.23-.546a1.7 1.7 0 0 1-.534-.515 1.295 1.295 0 0 1-.18-.701c0-.437.183-.783.55-1.037.367-.254.88-.381 1.54-.381.63 0 1.227.118 1.793.354l-.199.484c-.573-.237-1.104-.355-1.595-.355-.476 0-.854.079-1.133.237-.28.157-.42.376-.42.655 0 .304.11.548.326.73.217.183.64.387 1.27.613.527.19.91.36 1.15.513.24.152.42.324.54.518.12.193.18.42.18.682zm6.333-1.407c0 .952-.231 1.696-.693 2.231-.462.536-1.1.803-1.912.803-.512 0-.963-.123-1.354-.37a2.37 2.37 0 0 1-.897-1.064c-.207-.462-.311-.995-.311-1.6 0-.953.23-1.695.693-2.227.462-.531 1.095-.797 1.901-.797.802 0 1.431.27 1.888.808.457.54.685 1.278.685 2.216zm-4.609 0c0 .802.177 1.428.53 1.877.352.45.85.674 1.495.674.645 0 1.143-.225 1.496-.674.353-.45.53-1.075.53-1.877 0-.806-.179-1.43-.535-1.875-.357-.444-.857-.666-1.501-.666-.645 0-1.142.221-1.49.664-.35.442-.525 1.068-.525 1.877zM178.701 97v-3.83c0-.569-.112-.984-.334-1.246-.222-.261-.562-.392-1.02-.392-.598 0-1.04.165-1.327.494-.286.33-.43.847-.43 1.553V97h-.542v-3.99c0-.985-.451-1.478-1.353-1.478-.613 0-1.059.178-1.338.535-.28.356-.419.926-.419 1.71V97h-.532v-5.838h.44l.114.8h.032c.161-.29.39-.515.687-.674.298-.16.625-.24.983-.24.92 0 1.511.346 1.773 1.037h.021c.19-.333.445-.589.766-.768.32-.179.684-.268 1.093-.268.637 0 1.115.17 1.434.51.318.34.478.88.478 1.622V97h-.527zm4.774.107c-.848 0-1.51-.261-1.984-.784-.475-.523-.712-1.255-.712-2.197 0-.93.23-1.676.688-2.237.458-.56 1.076-.84 1.853-.84.687 0 1.23.24 1.627.72s.596 1.131.596 1.955v.43h-4.205c.007.801.194 1.414.56 1.836.368.423.893.634 1.577.634.333 0 .626-.023.879-.07.252-.046.572-.147.958-.3v.483c-.33.143-.634.24-.913.293-.28.051-.587.077-.924.077zm-.155-5.586c-.563 0-1.014.186-1.354.556-.34.371-.539.905-.596 1.604h3.61c0-.677-.148-1.206-.441-1.587-.294-.382-.7-.573-1.22-.573zm8.862.103h-1.375V97h-.532v-5.376h-1.085v-.312l1.085-.199v-.45c0-.717.132-1.243.395-1.577.263-.335.694-.503 1.292-.503.322 0 .644.049.966.146l-.123.461a2.85 2.85 0 0 0-.854-.134c-.415 0-.71.123-.884.368-.173.245-.26.644-.26 1.195v.543h1.375v.462zm3.427-.575c.247 0 .512.025.795.075l-.102.51a3.11 3.11 0 0 0-.758-.091c-.498 0-.906.211-1.224.634-.32.422-.478.956-.478 1.6V97h-.532v-5.838h.451l.054 1.052h.037c.24-.43.496-.731.768-.905.272-.173.602-.26.989-.26zM200.915 97l-.134-.924h-.043c-.294.376-.595.642-.905.798-.31.156-.676.233-1.098.233-.573 0-1.02-.146-1.338-.44-.318-.294-.478-.7-.478-1.22 0-.569.237-1.01.712-1.326.474-.315 1.16-.482 2.06-.5l1.111-.032v-.386c0-.555-.112-.974-.338-1.257-.225-.283-.589-.425-1.09-.425-.54 0-1.101.15-1.681.452l-.2-.462c.642-.301 1.276-.451 1.902-.451.641 0 1.12.166 1.437.5.317.332.475.851.475 1.557V97h-.392zm-2.148-.376c.623 0 1.114-.178 1.474-.534.36-.357.54-.852.54-1.486v-.574l-1.02.043c-.82.04-1.405.167-1.754.384-.35.216-.524.554-.524 1.012 0 .365.112.65.336.852.224.202.54.303.948.303zm11.725.376v-3.83c0-.569-.111-.984-.333-1.246-.222-.261-.562-.392-1.02-.392-.599 0-1.04.165-1.327.494-.287.33-.43.847-.43 1.553V97h-.542v-3.99c0-.985-.452-1.478-1.354-1.478-.612 0-1.058.178-1.337.535-.28.356-.42.926-.42 1.71V97h-.531v-5.838h.44l.113.8h.032c.162-.29.39-.515.688-.674.297-.16.625-.24.983-.24.92 0 1.51.346 1.772 1.037h.022c.19-.333.445-.589.765-.768.32-.179.685-.268 1.093-.268.638 0 1.116.17 1.434.51.319.34.478.88.478 1.622V97h-.526zm4.775.107c-.849 0-1.51-.261-1.985-.784-.474-.523-.711-1.255-.711-2.197 0-.93.229-1.676.687-2.237.458-.56 1.076-.84 1.853-.84.688 0 1.23.24 1.628.72.397.48.596 1.131.596 1.955v.43h-4.206c.007.801.194 1.414.561 1.836.367.423.893.634 1.577.634.333 0 .626-.023.878-.07.252-.046.572-.147.959-.3v.483c-.33.143-.634.24-.913.293-.28.051-.588.077-.924.077zm-.156-5.586c-.562 0-1.013.186-1.353.556-.34.371-.54.905-.597 1.604h3.61c0-.677-.147-1.206-.44-1.587-.294-.382-.7-.573-1.22-.573zM223.393 97l-1.278-3.905a23.845 23.845 0 0 1-.317-1.165h-.032l-.113.397-.242.779-1.3 3.894h-.526l-1.67-5.838h.57l.934 3.383c.218.838.361 1.454.43 1.848h.032c.21-.838.365-1.395.462-1.67l1.203-3.561h.483l1.144 3.55c.258.841.415 1.398.473 1.67h.032c.029-.232.172-.855.43-1.869l.891-3.351h.537L223.952 97h-.559zm8.116-2.927c0 .952-.23 1.696-.693 2.231-.462.536-1.1.803-1.912.803-.512 0-.963-.123-1.353-.37a2.37 2.37 0 0 1-.897-1.064c-.208-.462-.312-.995-.312-1.6 0-.953.231-1.695.693-2.227.462-.531 1.096-.797 1.901-.797.802 0 1.432.27 1.888.808.457.54.685 1.278.685 2.216zm-4.608 0c0 .802.176 1.428.529 1.877.352.45.851.674 1.496.674.644 0 1.143-.225 1.495-.674.353-.45.53-1.075.53-1.877 0-.806-.179-1.43-.535-1.875-.356-.444-.857-.666-1.501-.666-.645 0-1.142.221-1.49.664-.35.442-.524 1.068-.524 1.877zm8.524-3.024c.247 0 .512.025.794.075l-.102.51a3.11 3.11 0 0 0-.757-.091c-.498 0-.906.211-1.225.634-.318.422-.478.956-.478 1.6V97h-.531v-5.838h.45l.055 1.052h.037c.24-.43.496-.731.768-.905.272-.173.602-.26.989-.26zm2.502 3.389l2.981-3.276h.645l-2.299 2.492L241.752 97h-.64l-2.218-2.949-.956.87V97h-.532v-8.357h.532v4.189l-.037 1.606h.026zM191.06 76.04c0-4.327 1.522-9.13 4.565-14.41 3.043-5.28 6.985-9.827 11.825-13.64 4.84-3.813 9.533-5.72 14.08-5.72 2.86 0 5.243.77 7.15 2.31s2.86 3.52 2.86 5.94c0 3.153-1.797 4.73-5.39 4.73.367-1.32.55-2.603.55-3.85 0-4.107-1.797-6.16-5.39-6.16-3.227 0-6.655 1.852-10.285 5.555-3.63 3.703-6.6 7.993-8.91 12.87-2.31 4.877-3.465 9.112-3.465 12.705 0 2.86.99 4.29 2.97 4.29 1.32 0 2.86-.623 4.62-1.87a33.028 33.028 0 0 0 4.84-4.18c1.467-1.54 3.208-3.612 5.225-6.215 2.017-2.603 3.502-4.602 4.455-5.995l3.96-5.72c2.933.513 4.4 1.43 4.4 2.75 0 .587-1.063 2.787-3.19 6.6-2.127 3.813-3.19 6.71-3.19 8.69 0 1.247.312 2.365.935 3.355.623.99 1.558 1.485 2.805 1.485 2.127 0 4.803-1.522 8.03-4.565 3.227-3.043 6.417-7.315 9.57-12.815l1.1 1.1c-2.273 5.867-5.482 10.67-9.625 14.41S227.36 83.3 223.4 83.3c-2.567 0-4.528-.752-5.885-2.255-1.357-1.503-2.035-3.318-2.035-5.445 0-.88.11-1.943.33-3.19-3.3 4.4-6.252 7.627-8.855 9.68-2.603 2.053-5.188 3.08-7.755 3.08-2.42 0-4.382-.788-5.885-2.365-1.503-1.577-2.255-3.832-2.255-6.765z"/><path d="M162.13 74.17c0-6.307 2.127-15.143 6.38-26.51-1.76-.293-3.08-.587-3.96-.88V44.8c2.64.293 4.253.44 4.84.44 3.227-8.36 6.692-15.602 10.395-21.725 3.703-6.123 6.618-9.185 8.745-9.185.587 0 1.118.22 1.595.66.477.44.715 1.027.715 1.76 0 1.1-.715 3.007-2.145 5.72-1.43 2.713-3.447 6.343-6.05 10.89-2.603 4.547-4.748 8.617-6.435 12.21h4.07c6.087 0 11.33-.22 15.73-.66v1.98c-7.773.88-14.043 1.32-18.81 1.32H175c-4.033 9.167-6.05 17.123-6.05 23.87 0 3.3.477 5.61 1.43 6.93.953 1.32 2.53 1.98 4.73 1.98 3.74 0 7.443-1.668 11.11-5.005 3.667-3.337 6.93-7.938 9.79-13.805l1.43 1.1c-2.713 6.38-6.38 11.605-11 15.675s-9.46 6.105-14.52 6.105c-6.527 0-9.79-3.63-9.79-10.89zM152.67 28.85c0-1.467.88-2.787 2.64-3.96 1.76-1.173 3.557-1.76 5.39-1.76 2.42 0 3.63 1.1 3.63 3.3 0 1.467-.752 2.842-2.255 4.125s-3.135 1.925-4.895 1.925c-3.007 0-4.51-1.21-4.51-3.63z"/><path d="M135.51 73.62c0-2.86.77-6.71 2.31-11.55 1.54-4.84 3.593-9.277 6.16-13.31 2.567-4.033 5.023-6.05 7.37-6.05 1.613 0 2.42.807 2.42 2.42 0 .88-.953 2.897-2.86 6.05s-3.813 6.728-5.72 10.725c-1.907 3.997-2.86 7.498-2.86 10.505 0 2.567.422 4.308 1.265 5.225.843.917 2.218 1.375 4.125 1.375 5.72 0 11.367-5.61 16.94-16.83l.99 1.1c-2.053 6.16-5.078 10.963-9.075 14.41-3.997 3.447-8.195 5.17-12.595 5.17-2.713 0-4.803-.862-6.27-2.585-1.467-1.723-2.2-3.942-2.2-6.655z"/><path d="M110.43 71.97c0-4.987 1.43-11.642 4.29-19.965 2.86-8.323 6.178-16.207 9.955-23.65 3.777-7.443 7.59-13.897 11.44-19.36C139.965 3.532 142.807.8 144.64.8c1.027 0 1.888.917 2.585 2.75.697 1.833 1.045 3.63 1.045 5.39 0 5.5-3.007 13.878-9.02 25.135-6.013 11.257-12.76 19.965-20.24 26.125-.953 4.253-1.43 7.957-1.43 11.11 0 5.647 1.613 8.47 4.84 8.47 2.713 0 5.482-1.723 8.305-5.17 2.823-3.447 5.335-7.59 7.535-12.43l1.65.88c-6.307 13.493-13.163 20.24-20.57 20.24h-.11c-5.867 0-8.8-3.777-8.8-11.33zM120 56.46c6.013-6.087 11.66-14.098 16.94-24.035 5.28-9.937 7.92-16.922 7.92-20.955 0-1.173-.257-1.76-.77-1.76-1.027 0-3.062 2.365-6.105 7.095-3.043 4.73-6.325 10.872-9.845 18.425-3.52 7.553-6.233 14.63-8.14 21.23z"/><path d="M72.865 59.485C75.542 54.828 78.42 52.5 81.5 52.5c.66 0 1.43.183 2.31.55-1.393 1.173-3.043 4.088-4.95 8.745C76.953 66.452 76 70.1 76 72.74c0 4.18 1.32 6.27 3.96 6.27 3.227 0 7.15-2.933 11.77-8.8-2.053-1.687-3.648-3.887-4.785-6.6a21.71 21.71 0 0 1-1.705-8.47c0-3.813.972-7.077 2.915-9.79 1.943-2.713 4.565-4.07 7.865-4.07 5.06 0 7.59 2.823 7.59 8.47 0 5.72-2.457 12.247-7.37 19.58a8.482 8.482 0 0 0 4.18 1.1c2.127 0 4.327-.642 6.6-1.925 2.273-1.283 3.997-3.282 5.17-5.995l1.32 1.1c-1.393 3.227-3.373 5.61-5.94 7.15s-5.207 2.31-7.92 2.31c-1.98 0-3.74-.367-5.28-1.1-5.867 7.7-11.477 11.55-16.83 11.55-3.007 0-5.207-.917-6.6-2.75-1.393-1.833-2.09-4.253-2.09-7.26 0-4.693 1.338-9.368 4.015-14.025zM89.97 55.47c0 4.987 1.247 8.947 3.74 11.88 4.253-6.307 6.38-11.953 6.38-16.94 0-4.107-1.1-6.16-3.3-6.16-1.613 0-3.153 1.118-4.62 3.355s-2.2 4.858-2.2 7.865z"/><g><path d="M.98 76.26c0-3.227 2.677-4.84 8.03-4.84 3.227 0 7.737.77 13.53 2.31 1.247-2.127 2.53-4.877 3.85-8.25 1.32-3.373 2.365-6.178 3.135-8.415.77-2.237 1.962-5.922 3.575-11.055L36.29 36c-3.373-1.1-6.032-2.713-7.975-4.84-1.943-2.127-2.915-4.437-2.915-6.93 0-2.127.642-4.107 1.925-5.94 1.283-1.833 2.915-2.75 4.895-2.75-.953 1.32-1.43 3.593-1.43 6.82 0 5.28 2.09 9.057 6.27 11.33 1.613-4.913 3.153-9.13 4.62-12.65a83.198 83.198 0 0 1 5.115-10.23c1.943-3.3 4.088-5.793 6.435-7.48C55.577 1.643 58.07.8 60.71.8c2.713 0 5.17.88 7.37 2.64 2.2 1.76 3.3 4.62 3.3 8.58 0 2.64-.55 5.39-1.65 8.25-1.1 2.86-2.677 5.592-4.73 8.195-2.053 2.603-4.822 4.73-8.305 6.38-3.483 1.65-7.388 2.475-11.715 2.475h-1.76c-6.233 18.773-11.513 31.387-15.84 37.84.66.22 2.31.733 4.95 1.54l5.39 1.65c.88.293 2.457.733 4.73 1.32 2.273.587 4.033 1.008 5.28 1.265 1.247.257 2.695.495 4.345.715 1.65.22 3.135.33 4.455.33 2.933 0 5.537-.587 7.81-1.76-2.2 6.233-6.05 9.35-11.55 9.35-1.907 0-4.198-.385-6.875-1.155-2.677-.77-4.803-1.485-6.38-2.145-1.577-.66-4.308-1.888-8.195-3.685-3.887-1.797-6.27-2.878-7.15-3.245-3.887 4.327-7.957 6.49-12.21 6.49-3.3 0-5.958-1.063-7.975-3.19C1.988 80.513.98 78.387.98 76.26zm42.9-41.03c6.013-.073 11.11-3.153 15.29-9.24s6.27-11.733 6.27-16.94c0-3.667-1.32-5.5-3.96-5.5-1.613 0-3.19.77-4.73 2.31-1.54 1.54-3.08 4.015-4.62 7.425s-2.86 6.618-3.96 9.625c-1.1 3.007-2.53 7.113-4.29 12.32zM6.15 80.55c1.54 1.393 3.337 2.09 5.39 2.09 3.08 0 5.903-1.687 8.47-5.06-5.427-2.2-9.607-3.3-12.54-3.3-2.42 0-3.63.697-3.63 2.09 0 1.393.77 2.787 2.31 4.18z"/></g></g></svg>