<?xml version="1.0" encoding="UTF-8" standalone="no"?>
<svg width="15px" height="22px" viewBox="0 0 15 22" version="1.1" xmlns="http://www.w3.org/2000/svg" xmlns:xlink="http://www.w3.org/1999/xlink">
    <!-- Generator: sketchtool 39.1 (31720) - http://www.bohemiancoding.com/sketch -->
    <title>5131C855-7F96-4B92-9031-ED3499A3DDAD</title>
    <desc>Created with sketchtool.</desc>
    <defs></defs>
    <g id="Symbols" stroke="none" stroke-width="1" fill="none" fill-rule="evenodd">
        <g id="Search-black" fill="#333333">
            <g id="image_large_black" transform="translate(0.000000, 4.000000)">
                <g id="Слой_1">
                    <g id="Global_Nav_Large_Icons">
                        <path d="M15,14.293 L10.562,9.886 C11.457,8.838 12,7.481 12,5.999 C12,2.691 9.309,0 6,0 C2.691,0 0,2.691 0,5.999 C0,9.309 2.691,12 6,12 C7.467,12 8.811,11.469 9.854,10.592 L14.293,15 L15,14.293 L15,14.293 Z M6,11 C3.238,11 1,8.759 1,5.999 C1,3.238 3.238,1 6,1 C8.762,1 11,3.238 11,5.999 C11,8.759 8.762,11 6,11 L6,11 Z" id="Search_1_"></path>
                    </g>
                </g>
            </g>
        </g>
    </g>
</svg>