<?xml version="1.0" encoding="UTF-8"?>
<svg width="69px" height="62px" viewBox="0 0 69 62" version="1.1" xmlns="http://www.w3.org/2000/svg" xmlns:xlink="http://www.w3.org/1999/xlink">
    <!-- Generator: sketchtool 41 (35326) - http://www.bohemiancoding.com/sketch -->
    <title>93D73AAC-83D8-40A0-9A39-1995FE764AB8</title>
    <desc>Created with sketchtool.</desc>
    <defs></defs>
    <g id="Home" stroke="none" stroke-width="1" fill="none" fill-rule="evenodd">
        <g transform="translate(-497.000000, -583.000000)" id="here" fill="#000000">
            <g transform="translate(494.000000, 576.000000)">
                <path d="M16.5234375,68 L16.5234375,55.6074219 C16.5234375,53.6855373 16.1191447,52.2880903 15.3105469,51.4150391 C14.5019491,50.5419878 13.2480554,50.1054688 11.5488281,50.1054688 C9.26366045,50.1054688 7.59082562,50.6826114 6.53027344,51.8369141 C5.46972126,52.9912167 4.93945312,54.8632683 4.93945312,57.453125 L4.93945312,68 L3.19921875,68 L3.19921875,40.6484375 L4.93945312,40.6484375 L4.93945312,49.3496094 L4.8515625,51.7929688 L4.97460938,51.7929688 C5.6894567,50.6445255 6.59179143,49.8125026 7.68164062,49.296875 C8.77148982,48.7812474 10.1249919,48.5234375 11.7421875,48.5234375 C16.0781467,48.5234375 18.2460938,50.8495861 18.2460938,55.5019531 L18.2460938,68 L16.5234375,68 Z M32.1503906,68.3515625 C29.373033,68.3515625 27.2080156,67.4961023 25.6552734,65.7851562 C24.1025313,64.0742102 23.3261719,61.6777498 23.3261719,58.5957031 C23.3261719,55.5488129 24.0761644,53.1084076 25.5761719,51.2744141 C27.0761794,49.4404205 29.0976435,48.5234375 31.640625,48.5234375 C33.8906363,48.5234375 35.6660091,49.3085859 36.9667969,50.8789062 C38.2675846,52.4492266 38.9179688,54.5820178 38.9179688,57.2773438 L38.9179688,58.6835938 L25.1542969,58.6835938 C25.1777345,61.3086069 25.7900331,63.3124931 26.9912109,64.6953125 C28.1923888,66.0781319 29.9120982,66.7695312 32.1503906,66.7695312 C33.2402398,66.7695312 34.1982381,66.6933601 35.0244141,66.5410156 C35.8505901,66.3886711 36.896478,66.0605494 38.1621094,65.5566406 L38.1621094,67.1386719 C37.083979,67.6074242 36.0878952,67.926757 35.1738281,68.0966797 C34.2597611,68.2666024 33.2519586,68.3515625 32.1503906,68.3515625 Z M31.640625,50.0703125 C29.8007721,50.0703125 28.3242243,50.6767517 27.2109375,51.8896484 C26.0976507,53.1025451 25.4472666,54.8515511 25.2597656,57.1367188 L37.0722656,57.1367188 C37.0722656,54.9218639 36.5918017,53.1904359 35.6308594,51.9423828 C34.6699171,50.6943297 33.3398522,50.0703125 31.640625,50.0703125 Z M51.7148438,48.5234375 C52.5234415,48.5234375 53.3906204,48.6054679 54.3164062,48.7695312 L53.9824219,50.4394531 C53.1855429,50.2402334 52.3593793,50.140625 51.5039062,50.140625 C49.8749919,50.140625 48.5390677,50.8320243 47.4960938,52.2148438 C46.4531198,53.5976632 45.9316406,55.3437395 45.9316406,57.453125 L45.9316406,68 L44.1914062,68 L44.1914062,48.8925781 L45.6679688,48.8925781 L45.84375,52.3378906 L45.9667969,52.3378906 C46.7519571,50.9316336 47.5898393,49.9443388 48.4804688,49.3759766 C49.3710982,48.8076143 50.4492124,48.5234375 51.7148438,48.5234375 Z M65.1972656,68.3515625 C62.419908,68.3515625 60.2548906,67.4961023 58.7021484,65.7851562 C57.1494063,64.0742102 56.3730469,61.6777498 56.3730469,58.5957031 C56.3730469,55.5488129 57.1230394,53.1084076 58.6230469,51.2744141 C60.1230544,49.4404205 62.1445185,48.5234375 64.6875,48.5234375 C66.9375113,48.5234375 68.7128841,49.3085859 70.0136719,50.8789062 C71.3144596,52.4492266 71.9648438,54.5820178 71.9648438,57.2773438 L71.9648438,58.6835938 L58.2011719,58.6835938 C58.2246095,61.3086069 58.8369081,63.3124931 60.0380859,64.6953125 C61.2392638,66.0781319 62.9589732,66.7695312 65.1972656,66.7695312 C66.2871148,66.7695312 67.2451131,66.6933601 68.0712891,66.5410156 C68.8974651,66.3886711 69.943353,66.0605494 71.2089844,65.5566406 L71.2089844,67.1386719 C70.130854,67.6074242 69.1347702,67.926757 68.2207031,68.0966797 C67.3066361,68.2666024 66.2988336,68.3515625 65.1972656,68.3515625 Z M64.6875,50.0703125 C62.8476471,50.0703125 61.3710993,50.6767517 60.2578125,51.8896484 C59.1445257,53.1025451 58.4941416,54.8515511 58.3066406,57.1367188 L70.1191406,57.1367188 C70.1191406,54.9218639 69.6386767,53.1904359 68.6777344,51.9423828 C67.7167921,50.6943297 66.3867272,50.0703125 64.6875,50.0703125 Z"></path>
                <path d="M35.552,33.456 C35.7680011,33.047998 36.0379984,32.6100023 36.362,32.142 C36.6860016,31.6739977 36.949999,31.3140013 37.154,31.062 C37.358001,30.8099987 37.6999976,30.4080028 38.18,29.856 L39.08,28.848 C39.1760005,28.7279994 39.3079992,28.6560001 39.476,28.632 C39.6440008,28.6079999 39.7879994,28.6559994 39.908,28.776 C40.0280006,28.8960006 40.0999999,29.0399992 40.124,29.208 C40.1480001,29.3760008 40.1000006,29.5199994 39.98,29.64 L39.08,30.684 L38.108,31.8 C37.915999,32.0400012 37.6700015,32.3759978 37.37,32.808 C37.0699985,33.2400022 36.824001,33.6479981 36.632,34.032 C36.5599996,34.1760007 36.4400008,34.2719998 36.272,34.32 C36.1039992,34.3680002 35.9480007,34.3560004 35.804,34.284 C35.6599993,34.2119996 35.5640002,34.0920008 35.516,33.924 C35.4679998,33.7559992 35.4799996,33.6000007 35.552,33.456 Z M41.564,26.04 C42.0920026,25.4159969 43.5439881,23.8440126 45.92,21.324 C46.0160005,21.2039994 46.1479992,21.144 46.316,21.144 C46.4840008,21.144 46.6339993,21.1979995 46.766,21.306 C46.8980007,21.4140005 46.964,21.5519992 46.964,21.72 C46.964,21.8880008 46.9040006,22.0439993 46.784,22.188 L42.5,26.832 C42.3799994,26.9520006 42.2360008,27.0179999 42.068,27.03 C41.8999992,27.0420001 41.7560006,26.9940005 41.636,26.886 C41.5159994,26.7779995 41.4500001,26.6400008 41.438,26.472 C41.4259999,26.3039992 41.4679995,26.1600006 41.564,26.04 Z M48.944,18.732 C49.4480025,18.1559971 49.9939971,17.6100026 50.582,17.094 C51.1700029,16.5779974 51.9319953,15.9780034 52.868,15.294 C53.8040047,14.6099966 54.3919988,14.172001 54.632,13.98 C54.7760007,13.8599994 54.9319992,13.8119999 55.1,13.836 C55.2680008,13.8600001 55.4059995,13.9379993 55.514,14.07 C55.6220005,14.2020007 55.6640001,14.3519992 55.64,14.52 C55.6159999,14.6880008 55.5440006,14.8199995 55.424,14.916 C55.1119984,15.1800013 54.5000046,15.6419967 53.588,16.302 C52.6759954,16.9620033 51.9440028,17.5259977 51.392,17.994 C50.8399972,18.4620023 50.3360023,18.9719972 49.88,19.524 C49.7599994,19.6440006 49.6160008,19.7099999 49.448,19.722 C49.2799992,19.7340001 49.1360006,19.6860005 49.016,19.578 C48.8959994,19.4699995 48.8300001,19.3320008 48.818,19.164 C48.8059999,18.9959992 48.8479995,18.8520006 48.944,18.732 Z M56.756,7.464 C57.2600025,7.464 58.8559866,7.41600048 61.544,7.32 C62.5040048,7.27199976 63.2239976,7.248 63.704,7.248 L64.424,7.248 C64.5200005,7.27200012 64.6039996,7.284 64.676,7.284 C64.7480004,7.30800012 64.8079998,7.33199988 64.856,7.356 C65.0000007,7.40400024 65.1079996,7.49999928 65.18,7.644 L65.252,7.968 C65.252,7.99200012 65.2460001,8.02199982 65.234,8.058 C65.2219999,8.09400018 65.216,8.13599976 65.216,8.184 C65.1919999,8.23200024 65.1680001,8.3159994 65.144,8.436 C65.0959998,8.60400084 65.0120006,8.84399844 64.892,9.156 L64.1,11.388 L62.768,15.06 C62.7199998,15.2280008 62.6240007,15.3479996 62.48,15.42 C62.3359993,15.4920004 62.1800008,15.5040002 62.012,15.456 C61.8439992,15.4079998 61.7240004,15.3120007 61.652,15.168 C61.5799996,15.0239993 61.5679998,14.8680008 61.616,14.7 C61.6640002,14.4839989 62.1079958,13.2360114 62.948,10.956 L63.452,9.588 C61.6999912,10.6680054 60.128007,11.8559935 58.736,13.152 C58.6159994,13.2720006 58.4660009,13.332 58.286,13.332 C58.1059991,13.332 57.9620005,13.2720006 57.854,13.152 C57.7459995,13.0319994 57.692,12.8820009 57.692,12.702 C57.692,12.5219991 57.7519994,12.3840005 57.872,12.288 C59.3600074,10.895993 61.0279908,9.62400576 62.876,8.472 C62.5399983,8.49600012 62.1080026,8.51999988 61.58,8.544 C58.8919866,8.64000048 57.2840026,8.688 56.756,8.688 C56.5879992,8.688 56.4440006,8.6280006 56.324,8.508 C56.2039994,8.3879994 56.144,8.24400084 56.144,8.076 C56.144,7.90799916 56.2039994,7.7640006 56.324,7.644 C56.4440006,7.5239994 56.5879992,7.464 56.756,7.464 Z" id="C"></path>
            </g>
        </g>
    </g>
</svg>